{
    "asset" : {
        "generator" : "Khronos Blender glTF 2.0 I/O",
        "version" : "2.0"
    },
    "scene" : 0,
    "scenes" : [
        {
            "name" : "Scene",
            "nodes" : [
                0
            ]
        }
    ],
    "nodes" : [
        {
            "mesh" : 0,
            "name" : "Salom\u00e9 Final",
            "scale" : [
                0.16100990772247314,
                0.16100990772247314,
                0.16100990772247314
            ]
        }
    ],
    "materials" : [
        {
            "name" : "Material.001",
            "pbrMetallicRoughness" : {
                "baseColorTexture" : {
                    "index" : 0,
                    "texCoord" : 0
                },
                "metallicFactor" : 0,
                "roughnessFactor" : 0.5
            }
        }
    ],
    "meshes" : [
        {
            "name" : "Salom\u00e9 Final",
            "primitives" : [
                {
                    "attributes" : {
                        "POSITION" : 0,
                        "NORMAL" : 1,
                        "TEXCOORD_0" : 2
                    },
                    "indices" : 3,
                    "material" : 0
                }
            ]
        }
    ],
    "textures" : [
        {
            "source" : 0
        }
    ],
    "images" : [
        {
            "bufferView" : 4,
            "mimeType" : "image/png",
            "name" : "salome_tex_2.jpg"
        }
    ],
    "accessors" : [
        {
            "bufferView" : 0,
            "componentType" : 5126,
            "count" : 26785,
            "max" : [
                6.182293891906738,
                10.17401123046875,
                4.342478275299072
            ],
            "min" : [
                -5.910987377166748,
                -6.622817039489746,
                -4.081364154815674
            ],
            "type" : "VEC3"
        },
        {
            "bufferView" : 1,
            "componentType" : 5126,
            "count" : 26785,
            "type" : "VEC3"
        },
        {
            "bufferView" : 2,
            "componentType" : 5126,
            "count" : 26785,
            "type" : "VEC2"
        },
        {
            "bufferView" : 3,
            "componentType" : 5123,
            "count" : 26790,
            "type" : "SCALAR"
        }
    ],
    "bufferViews" : [
        {
            "buffer" : 0,
            "byteLength" : 321420,
            "byteOffset" : 0
        },
        {
            "buffer" : 0,
            "byteLength" : 321420,
            "byteOffset" : 321420
        },
        {
            "buffer" : 0,
            "byteLength" : 214280,
            "byteOffset" : 642840
        },
        {
            "buffer" : 0,
            "byteLength" : 53580,
            "byteOffset" : 857120
        },
        {
            "buffer" : 0,
            "byteLength" : 511360,
            "byteOffset" : 910700
        }
    ],
    "buffers" : [
        {
            "byteLength" : 1422060,
            "uri" : "data:application/octet-stream;base64,"
        }
    ]
}
