# Blender v2.80 (sub 45) OBJ File: 'bieres_perso.blend'
# www.blender.org
mtllib biere_une.mtl
o Cube_Cube.001
v -1.000000 -1.000000 1.774536
v -1.000000 1.000000 1.774536
v -1.000000 -1.000000 -1.774536
v -1.000000 1.000000 -1.774536
v 1.000000 -1.000000 1.774536
v 1.000000 1.000000 1.774536
v 1.000000 -1.000000 -1.774536
v 1.000000 1.000000 -1.774536
vt 0.666667 0.500000
vt 0.333334 0.500000
vt 0.333333 0.000000
vt 0.666667 0.000000
vt 0.666667 0.781764
vt 0.666667 0.500000
vt 1.000000 0.500000
vt 1.000000 0.781764
vt 0.333333 0.500000
vt 0.000000 0.500000
vt 0.000000 0.000000
vt 0.333333 0.000000
vt 0.333333 0.781764
vt 0.333333 0.500000
vt 0.666667 0.500000
vt 0.666667 0.781764
vt 0.000000 0.500000
vt 0.333333 1.000000
vt 0.000000 1.000000
vt 0.666667 0.000000
vt 1.000000 0.000000
vn -1.0000 0.0000 0.0000
vn 0.0000 0.0000 -1.0000
vn 1.0000 0.0000 0.0000
vn 0.0000 0.0000 1.0000
vn 0.0000 -1.0000 0.0000
vn 0.0000 1.0000 0.0000
usemtl Material.001
s off
f 1/1/1 2/2/1 4/3/1 3/4/1
f 3/5/2 4/6/2 8/7/2 7/8/2
f 7/9/3 8/10/3 6/11/3 5/12/3
f 5/13/4 6/14/4 2/15/4 1/16/4
f 3/17/5 7/9/5 5/18/5 1/19/5
f 8/7/6 4/6/6 2/20/6 6/21/6
