# Blender v2.80 (sub 45) OBJ File: 'carte.blend'
# www.blender.org
o Cube.001
v -3.094519 -0.030331 5.555000
v -3.495000 -0.030331 4.918471
v -3.247777 -0.030331 5.506547
v -3.377702 -0.030331 5.368565
v -3.464515 -0.030331 5.162060
v -3.495000 0.030331 4.918471
v -3.094519 0.030331 5.555000
v -3.464515 0.030331 5.162060
v -3.377702 0.030331 5.368565
v -3.247777 0.030331 5.506547
v -3.495000 -0.030331 -4.918471
v -3.094519 -0.030331 -5.555000
v -3.464515 -0.030331 -5.162060
v -3.377702 -0.030331 -5.368565
v -3.247777 -0.030331 -5.506547
v -3.094519 0.030331 -5.555000
v -3.495000 0.030331 -4.918471
v -3.247777 0.030331 -5.506547
v -3.377702 0.030331 -5.368565
v -3.464515 0.030331 -5.162060
v 3.495000 -0.030331 4.918471
v 3.094520 -0.030331 5.555000
v 3.464516 -0.030331 5.162060
v 3.377702 -0.030331 5.368565
v 3.247777 -0.030331 5.506547
v 3.094520 0.030331 5.555000
v 3.495000 0.030331 4.918471
v 3.247777 0.030331 5.506547
v 3.377702 0.030331 5.368565
v 3.464516 0.030331 5.162060
v 3.094520 -0.030331 -5.555000
v 3.495000 -0.030331 -4.918471
v 3.247777 -0.030331 -5.506547
v 3.377702 -0.030331 -5.368565
v 3.464516 -0.030331 -5.162060
v 3.495000 0.030331 -4.918471
v 3.094520 0.030331 -5.555000
v 3.464516 0.030331 -5.162060
v 3.377702 0.030331 -5.368565
v 3.247777 0.030331 -5.506547
vt 0.918851 0.020256
vt 0.891802 0.462963
vt 0.891801 0.020256
vt 0.972950 0.020256
vt 0.945901 0.462963
vt 0.945901 0.020256
vt 0.891801 0.471353
vt 0.000000 0.028647
vt 0.051094 0.000000
vt 0.918851 0.462963
vt 0.945901 0.020256
vt 0.945901 0.462963
vt 1.000000 0.020256
vt 0.972950 0.462963
vt 0.972950 0.020256
vt 0.918851 0.462963
vt 0.891802 0.473926
vt 0.918851 0.473926
vt 0.891802 0.483219
vt 0.918851 0.483219
vt 0.945901 0.473926
vt 0.945901 0.483219
vt 0.918851 0.473926
vt 1.000000 0.009294
vt 0.972950 0.009294
vt 1.000000 0.000000
vt 0.945901 0.000000
vt 0.918851 0.009294
vt 0.918851 0.000000
vt 0.945901 0.009294
vt 0.918851 0.020256
vt 0.972950 0.009294
vt 0.945901 0.009294
vt 0.972950 0.000000
vt 0.972950 0.483219
vt 1.000000 0.473926
vt 1.000000 0.483219
vt 0.972950 0.473926
vt 1.000000 0.462963
vt 0.918851 0.009294
vt 0.891801 0.009294
vt 0.918851 0.000000
vt 0.945901 0.483219
vt 0.972950 0.473926
vt 0.972950 0.483219
vt 0.945901 0.473926
vt 0.972950 0.462963
vt 0.891801 0.971353
vt 0.000000 0.528647
vt 0.051094 0.500000
vt 0.840707 0.500000
vt 0.051094 0.500000
vt 0.000000 0.471353
vt 0.031541 0.497819
vt 0.003889 0.482316
vt 0.014965 0.491610
vt 0.003889 0.017684
vt 0.014965 0.008390
vt 0.031541 0.002181
vt 0.840707 0.000000
vt 0.860260 0.002181
vt 0.891801 0.028647
vt 0.876836 0.008390
vt 0.887912 0.017684
vt 0.887912 0.482316
vt 0.876836 0.491610
vt 0.860260 0.497819
vt 0.972950 0.000000
vt 0.945901 0.000000
vt 0.891801 0.000000
vt 0.840707 1.000000
vt 0.051094 1.000000
vt 0.000000 0.971353
vt 0.031541 0.997819
vt 0.003889 0.982316
vt 0.014965 0.991610
vt 0.003889 0.517684
vt 0.014965 0.508390
vt 0.031541 0.502181
vt 0.840707 0.500000
vt 0.860260 0.502181
vt 0.891801 0.528647
vt 0.876836 0.508390
vt 0.887912 0.517684
vt 0.887912 0.982316
vt 0.876836 0.991610
vt 0.860260 0.997819
vn 0.0000 0.0000 1.0000
vn 1.0000 0.0000 0.0000
vn 0.0000 1.0000 -0.0000
vn -1.0000 0.0000 0.0000
vn 0.0000 0.0000 -1.0000
vn -0.3014 0.0000 0.9535
vn -0.7280 0.0000 0.6855
vn -0.9219 0.0000 0.3875
vn -0.9923 0.0000 0.1242
vn -0.3014 0.0000 -0.9535
vn -0.7280 0.0000 -0.6855
vn -0.9219 0.0000 -0.3875
vn -0.9923 0.0000 -0.1242
vn 0.9923 0.0000 -0.1242
vn 0.9219 0.0000 -0.3875
vn 0.7280 0.0000 -0.6855
vn 0.3014 0.0000 -0.9535
vn 0.3014 0.0000 0.9535
vn 0.7280 0.0000 0.6855
vn 0.9219 0.0000 0.3875
vn 0.9923 0.0000 0.1242
vn 0.0000 -1.0000 0.0000
s off
f 26/1/1 1/2/1 22/3/1
f 36/4/2 21/5/2 32/6/2
f 26/7/3 16/8/3 17/9/3
f 6/10/4 11/11/4 2/12/4
f 16/13/5 31/14/5 12/15/5
f 7/16/6 3/17/6 1/2/6
f 10/18/7 4/19/7 3/17/7
f 9/20/8 5/21/8 4/22/8
f 8/23/9 2/12/9 5/21/9
f 12/15/10 18/24/10 16/13/10
f 15/25/11 19/26/11 18/24/11
f 14/27/12 20/28/12 19/29/12
f 13/30/13 17/31/13 20/28/13
f 32/6/14 38/32/14 36/4/14
f 35/33/15 39/34/15 38/32/15
f 34/35/16 40/36/16 39/37/16
f 33/38/17 37/39/17 40/36/17
f 22/3/18 28/40/18 26/1/18
f 25/41/19 29/42/19 28/40/19
f 24/43/20 30/44/20 29/45/20
f 23/46/21 27/47/21 30/44/21
f 1/48/22 31/49/22 32/50/22
f 26/1/1 7/16/1 1/2/1
f 36/4/2 27/47/2 21/5/2
f 27/51/3 36/52/3 37/53/3
f 36/52/3 38/54/3 40/55/3
f 38/54/3 39/56/3 40/55/3
f 40/55/3 37/53/3 36/52/3
f 37/53/3 16/8/3 27/51/3
f 16/8/3 18/57/3 19/58/3
f 19/58/3 20/59/3 17/9/3
f 17/9/3 6/60/3 26/7/3
f 6/60/3 8/61/3 7/62/3
f 26/7/3 6/60/3 7/62/3
f 8/61/3 9/63/3 10/64/3
f 10/64/3 7/62/3 8/61/3
f 26/7/3 28/65/3 29/66/3
f 29/66/3 30/67/3 27/51/3
f 16/8/3 19/58/3 17/9/3
f 27/51/3 16/8/3 26/7/3
f 26/7/3 29/66/3 27/51/3
f 6/10/4 17/31/4 11/11/4
f 16/13/5 37/39/5 31/14/5
f 7/16/6 10/18/6 3/17/6
f 10/18/7 9/20/7 4/19/7
f 9/20/8 8/23/8 5/21/8
f 8/23/9 6/10/9 2/12/9
f 12/15/10 15/25/10 18/24/10
f 15/25/11 14/68/11 19/26/11
f 14/27/12 13/30/12 20/28/12
f 13/30/13 11/11/13 17/31/13
f 32/6/14 35/33/14 38/32/14
f 35/33/15 34/69/15 39/34/15
f 34/35/16 33/38/16 40/36/16
f 33/38/17 31/14/17 37/39/17
f 22/3/18 25/41/18 28/40/18
f 25/41/19 24/70/19 29/42/19
f 24/43/20 23/46/20 30/44/20
f 23/46/21 21/5/21 27/47/21
f 2/71/22 11/72/22 12/73/22
f 11/72/22 13/74/22 15/75/22
f 13/74/22 14/76/22 15/75/22
f 15/75/22 12/73/22 11/72/22
f 12/73/22 31/49/22 2/71/22
f 31/49/22 33/77/22 34/78/22
f 34/78/22 35/79/22 32/50/22
f 32/50/22 21/80/22 1/48/22
f 21/80/22 23/81/22 22/82/22
f 1/48/22 21/80/22 22/82/22
f 23/81/22 24/83/22 25/84/22
f 25/84/22 22/82/22 23/81/22
f 1/48/22 3/85/22 4/86/22
f 4/86/22 5/87/22 2/71/22
f 31/49/22 34/78/22 32/50/22
f 2/71/22 31/49/22 1/48/22
f 1/48/22 4/86/22 2/71/22
