# Blender v2.80 (sub 45) OBJ File: 'couteau2qualite.blend'
# www.blender.org
mtllib couteau.mtl
o Cube
v 0.125430 0.176400 -0.114069
v 0.125430 0.176400 0.113901
v -0.131722 0.176400 -0.114069
v -0.131722 0.176400 0.113901
v 0.128717 0.176400 0.113118
v -0.138110 0.176400 0.113118
v 0.128717 0.176400 -0.114610
v -0.138110 0.176400 -0.114610
v 0.126716 0.213311 0.086635
v -0.139805 0.230733 0.086635
v 0.126716 0.213311 -0.094866
v -0.139805 0.230733 -0.094866
v 0.170239 0.278209 0.018062
v -0.289057 0.278209 0.018062
v 0.170239 0.278209 -0.013943
v -0.289057 0.278209 -0.013943
v 0.170239 3.124226 -0.013943
v 0.170239 1.508603 -0.013943
v 0.170239 1.508603 0.018062
v -0.289057 1.508603 0.018062
v -0.289057 1.508603 -0.013943
v 0.170239 3.124226 0.018062
v 0.173988 -0.986648 -0.114610
v -0.092839 -0.986648 0.113118
v 0.173988 -0.986648 0.113118
v -0.092839 -0.986648 -0.114610
v 0.181653 -1.183563 -0.114610
v 0.181653 -1.183563 0.113118
v -0.134031 -1.183563 -0.114610
v -0.134031 -1.183563 0.113118
v 0.188416 -1.357320 -0.006356
v 0.183037 -1.219113 -0.114610
v 0.188233 -1.352611 -0.034374
v 0.187695 -1.338804 -0.060483
v 0.186840 -1.316840 -0.082903
v 0.185726 -1.288216 -0.100107
v 0.184429 -1.254884 -0.110921
v 0.183037 -1.219113 0.113118
v 0.188416 -1.357320 0.004864
v 0.184429 -1.254884 0.109429
v 0.185726 -1.288216 0.098615
v 0.186840 -1.316840 0.081411
v 0.187695 -1.338804 0.058991
v 0.188233 -1.352611 0.032882
v -0.159112 -1.216875 -0.114610
v -0.262759 -1.354535 -0.006356
v -0.185938 -1.252504 -0.110921
v -0.210935 -1.285705 -0.100107
v -0.232401 -1.314215 -0.082903
v -0.248873 -1.336092 -0.060483
v -0.259227 -1.349845 -0.034374
v -0.262759 -1.354535 0.004864
v -0.159112 -1.216875 0.113118
v -0.259227 -1.349845 0.032882
v -0.248873 -1.336092 0.058991
v -0.232401 -1.314215 0.081411
v -0.210935 -1.285705 0.098615
v -0.185938 -1.252504 0.109429
v -0.285626 1.709355 0.018062
v -0.289057 1.539028 0.018062
v -0.286514 1.684419 0.018062
v -0.287342 1.655376 0.018062
v -0.288052 1.624206 0.018062
v -0.288598 1.593032 0.018062
v -0.288940 1.563979 0.018062
v 0.129634 3.106768 0.018062
v 0.000719 3.004604 0.018062
v 0.107651 3.095724 0.018062
v 0.083714 3.080763 0.018062
v 0.059455 3.062906 0.018062
v 0.036528 3.043368 0.018062
v 0.016494 3.023483 0.018062
v -0.008764 2.991776 0.018062
v -0.090986 2.844134 0.018062
v -0.022948 2.971347 0.018062
v -0.038317 2.946918 0.018062
v -0.053824 2.920154 0.018062
v -0.068413 2.892878 0.018062
v -0.081088 2.866948 0.018062
v -0.122956 2.764017 0.018062
v -0.174020 2.601946 0.018062
v -0.131793 2.740710 0.018062
v -0.141355 2.713340 0.018062
v -0.150992 2.683771 0.018062
v -0.160046 2.654018 0.018062
v -0.167900 2.626109 0.018062
v -0.208036 2.457166 0.018062
v -0.238243 2.289705 0.018062
v -0.213445 2.432819 0.018062
v -0.219216 2.404372 0.018062
v -0.224956 2.373763 0.018062
v -0.230273 2.343077 0.018062
v -0.234805 2.314406 0.018062
v -0.262687 2.096976 0.018062
v -0.276839 1.927325 0.018062
v -0.265579 2.072200 0.018062
v -0.268507 2.043310 0.018062
v -0.271273 2.012277 0.018062
v -0.273687 1.981214 0.018062
v -0.275586 1.952239 0.018062
v -0.289057 1.539028 -0.013943
v -0.285626 1.709355 -0.013943
v -0.288940 1.563979 -0.013943
v -0.288598 1.593032 -0.013943
v -0.288052 1.624206 -0.013943
v -0.287342 1.655376 -0.013943
v -0.286514 1.684419 -0.013943
v -0.276839 1.927325 -0.013943
v -0.262687 2.096976 -0.013943
v -0.275586 1.952239 -0.013943
v -0.273687 1.981214 -0.013943
v -0.271273 2.012277 -0.013943
v -0.268507 2.043310 -0.013943
v -0.265579 2.072200 -0.013943
v -0.238243 2.289705 -0.013943
v -0.208036 2.457166 -0.013943
v -0.234805 2.314406 -0.013943
v -0.230273 2.343077 -0.013943
v -0.224956 2.373763 -0.013943
v -0.219216 2.404372 -0.013943
v -0.213445 2.432819 -0.013943
v -0.174020 2.601946 -0.013943
v -0.122956 2.764017 -0.013943
v -0.167900 2.626109 -0.013943
v -0.160046 2.654018 -0.013943
v -0.150992 2.683771 -0.013943
v -0.141355 2.713340 -0.013943
v -0.131793 2.740710 -0.013943
v -0.090986 2.844134 -0.013943
v -0.008764 2.991776 -0.013943
v -0.081088 2.866948 -0.013943
v -0.068413 2.892878 -0.013943
v -0.053824 2.920154 -0.013943
v -0.038317 2.946918 -0.013943
v -0.022948 2.971347 -0.013943
v 0.000719 3.004604 -0.013943
v 0.129634 3.106768 -0.013943
v 0.016494 3.023483 -0.013943
v 0.036528 3.043368 -0.013943
v 0.059455 3.062906 -0.013943
v 0.083714 3.080763 -0.013943
v 0.107651 3.095724 -0.013943
vt 0.736909 0.579500
vt 0.771923 0.689310
vt 0.736909 0.669068
vt 0.986152 0.432321
vt 0.972304 1.000000
vt 0.972304 0.432321
vt 0.520457 0.542189
vt 0.492637 0.577532
vt 0.492637 0.566285
vt 0.492637 0.596387
vt 0.427120 0.561044
vt 0.492637 0.532608
vt 0.397450 0.642418
vt 0.427120 0.532608
vt 0.427120 0.689450
vt 0.427120 0.657239
vt 0.440968 0.641926
vt 0.440968 0.657239
vt 0.198725 0.998209
vt 0.397450 0.566657
vt 0.397450 0.998201
vt 0.198725 0.000010
vt 0.000000 0.431873
vt 0.000000 0.000000
vt 1.000000 0.000000
vt 0.986152 0.428194
vt 0.986152 0.000000
vt 0.986152 0.000000
vt 0.972304 0.000000
vt 0.986152 0.962927
vt 1.000000 0.958001
vt 1.000000 0.962927
vt 0.986152 0.902617
vt 1.000000 0.873179
vt 1.000000 0.902617
vt 0.986152 0.814291
vt 1.000000 0.762250
vt 1.000000 0.814291
vt 0.986152 0.702501
vt 1.000000 0.634239
vt 1.000000 0.702501
vt 0.349517 0.021509
vt 0.379882 0.006124
vt 0.320001 0.046458
vt 1.000000 0.428194
vt 0.986152 0.438782
vt 0.986152 0.574509
vt 1.000000 0.498225
vt 1.000000 0.574509
vt 0.986152 0.970265
vt 0.440968 0.596387
vt 0.427120 0.604877
vt 0.427120 0.596387
vt 0.440968 0.604877
vt 0.427120 0.614326
vt 0.440968 0.614326
vt 0.427120 0.624090
vt 0.440968 0.624090
vt 0.427120 0.633504
vt 0.440968 0.633504
vt 0.427120 0.641926
vt 0.986152 0.911039
vt 1.000000 0.911039
vt 0.986152 0.920680
vt 1.000000 0.920680
vt 0.986152 0.930882
vt 1.000000 0.930882
vt 0.986152 0.940951
vt 1.000000 0.940951
vt 0.986152 0.950201
vt 1.000000 0.950201
vt 0.986152 0.958001
vt 0.986152 0.822998
vt 1.000000 0.822998
vt 0.986152 0.833093
vt 1.000000 0.833093
vt 0.986152 0.843888
vt 1.000000 0.843888
vt 0.986152 0.854648
vt 1.000000 0.854648
vt 0.986152 0.864638
vt 1.000000 0.864638
vt 0.986152 0.873179
vt 0.986152 0.711265
vt 1.000000 0.711265
vt 0.986152 0.721463
vt 1.000000 0.721463
vt 0.986152 0.732401
vt 1.000000 0.732401
vt 0.986152 0.743333
vt 1.000000 0.743333
vt 0.986152 0.753514
vt 0.986152 0.762250
vt 0.986152 0.583240
vt 1.000000 0.583240
vt 0.986152 0.593417
vt 1.000000 0.593417
vt 0.986152 0.604344
vt 1.000000 0.604344
vt 0.986152 0.615279
vt 1.000000 0.615279
vt 0.986152 0.625476
vt 1.000000 0.625476
vt 0.986152 0.634239
vt 1.000000 0.438782
vt 0.986152 0.447471
vt 1.000000 0.447471
vt 0.986152 0.457598
vt 1.000000 0.457598
vt 0.986152 0.468474
vt 1.000000 0.468474
vt 0.986152 0.479356
vt 1.000000 0.479356
vt 0.986152 0.489504
vt 1.000000 0.489504
vt 0.986152 0.498225
vt 0.181157 0.992844
vt 0.150792 0.977446
vt 0.121276 0.952478
vt 0.771923 0.532467
vt 0.986152 1.000000
vt 0.520457 0.605969
vt 0.427120 0.572291
vt 0.397450 0.552849
vt 0.198725 0.566665
vt 0.198725 0.431883
vt 0.397450 0.000000
vt 0.248499 0.183188
vt 0.198725 0.555994
vt 0.254545 0.164925
vt 0.258463 0.154489
vt 0.198776 0.547243
vt 0.198924 0.537053
vt 0.199160 0.526119
vt 0.199468 0.515187
vt 0.199826 0.505000
vt 0.200210 0.496254
vt 0.204012 0.419804
vt 0.204554 0.411066
vt 0.205376 0.400903
vt 0.206420 0.390009
vt 0.207617 0.379124
vt 0.208884 0.368991
vt 0.210135 0.360301
vt 0.220711 0.292704
vt 0.222199 0.284040
vt 0.224160 0.273984
vt 0.226460 0.263221
vt 0.228944 0.252486
vt 0.231441 0.242508
vt 0.233781 0.233969
vt 0.251147 0.174713
vt 0.262632 0.144118
vt 0.266769 0.134518
vt 0.270593 0.126344
vt 0.284425 0.098243
vt 0.288708 0.090241
vt 0.294192 0.081146
vt 0.300504 0.071579
vt 0.307214 0.062192
vt 0.313864 0.053624
vt 0.324104 0.041959
vt 0.339597 0.028362
vt 0.360013 0.015246
vt 0.330929 0.035337
vt 0.370370 0.009998
vt 1.000000 0.970265
vt 1.000000 0.753514
vt 0.000000 0.442552
vt 0.198725 0.998972
vt 0.049774 0.815643
vt 0.115139 0.945307
vt 0.071868 0.872531
vt 0.085700 0.900653
vt 0.171645 0.988967
vt 0.161288 0.983715
vt 0.140872 0.970588
vt 0.125378 0.956981
vt 0.132204 0.963608
vt 0.108489 0.936732
vt 0.101779 0.927337
vt 0.095467 0.917763
vt 0.089983 0.908661
vt 0.068044 0.864351
vt 0.063907 0.854743
vt 0.059737 0.844364
vt 0.055820 0.833920
vt 0.052422 0.824124
vt 0.035056 0.764824
vt 0.032715 0.756278
vt 0.030219 0.746293
vt 0.027735 0.735548
vt 0.025435 0.724778
vt 0.023474 0.714714
vt 0.021986 0.706044
vt 0.011410 0.638395
vt 0.010159 0.629698
vt 0.008892 0.619557
vt 0.007695 0.608665
vt 0.006650 0.597761
vt 0.005829 0.587591
vt 0.005287 0.578846
vt 0.001485 0.502338
vt 0.001101 0.493585
vt 0.000742 0.483391
vt 0.000435 0.472450
vt 0.000199 0.461508
vt 0.000051 0.451310
vt 0.798038 0.539187
vt 0.775240 0.609714
vt 0.775240 0.545935
vt 0.427027 0.000000
vt 0.519800 0.408709
vt 0.404353 0.408128
vt 0.972304 0.538853
vt 0.873772 0.136301
vt 0.972304 0.136301
vt 0.399821 0.489702
vt 0.537099 0.477916
vt 0.547863 0.489663
vt 0.873772 0.539187
vt 0.775240 0.130312
vt 0.873772 0.130312
vt 0.652900 0.408398
vt 0.745671 0.000000
vt 0.768347 0.407816
vt 0.586006 0.534849
vt 0.586345 0.626255
vt 0.586006 0.625102
vt 0.684982 0.533590
vt 0.586685 0.532467
vt 0.685216 0.532467
vt 0.684982 0.621403
vt 0.586685 0.623585
vt 0.586346 0.621404
vt 0.685216 0.623585
vt 0.559096 0.622779
vt 0.581741 0.532958
vt 0.581741 0.626813
vt 0.536418 0.536649
vt 0.559096 0.626462
vt 0.543662 0.626821
vt 0.536418 0.612716
vt 0.536418 0.532608
vt 0.772186 0.476864
vt 0.635601 0.477552
vt 0.775240 0.061085
vt 0.873772 0.061085
vt 0.873772 0.065766
vt 0.972304 0.065766
vt 0.400514 0.477228
vt 0.897191 0.007094
vt 0.908488 0.001804
vt 0.920611 0.000000
vt 0.708636 0.532467
vt 0.713490 0.690864
vt 0.708636 0.690864
vt 0.788959 0.014231
vt 0.822079 0.000000
vt 0.860053 0.014231
vt 0.696513 0.689706
vt 0.696513 0.532614
vt 0.685216 0.686312
vt 0.685216 0.533043
vt 0.775240 0.532467
vt 0.593403 0.524274
vt 0.774801 0.524282
vt 0.602606 0.513857
vt 0.774234 0.513873
vt 0.613327 0.501924
vt 0.773578 0.501952
vt 0.624838 0.489290
vt 0.772879 0.489329
vt 0.713490 0.532467
vt 0.725613 0.689706
vt 0.725613 0.532614
vt 0.736909 0.686312
vt 0.397450 0.532607
vt 0.579292 0.524518
vt 0.586345 0.532608
vt 0.397894 0.524526
vt 0.570092 0.514177
vt 0.398464 0.514194
vt 0.559372 0.502289
vt 0.399121 0.502316
vt 0.798038 0.619296
vt 0.542474 0.000582
vt 0.873772 0.538853
vt 0.775240 0.539187
vt 0.630224 0.000581
vt 0.586345 0.532608
vt 0.586345 0.533590
vt 0.566345 0.532608
vt 0.559096 0.532608
vt 0.925465 0.000000
vt 0.948885 0.007094
vt 0.937588 0.001804
vt 0.958585 0.015510
vt 0.966029 0.026476
vt 0.880047 0.026476
vt 0.970708 0.039247
vt 0.972304 0.052953
vt 0.873772 0.052953
vt 0.875368 0.039247
vt 0.887491 0.015510
vt 0.826934 0.000000
vt 0.839056 0.001656
vt 0.850353 0.006510
vt 0.867497 0.024294
vt 0.781516 0.024294
vt 0.872176 0.036012
vt 0.873772 0.048588
vt 0.776836 0.036012
vt 0.775240 0.048588
vt 0.798660 0.006510
vt 0.809956 0.001656
vt 0.586345 0.532467
vt 0.736909 0.533043
vn 0.0501 0.7658 -0.6411
vn 1.0000 0.0000 0.0000
vn 0.8305 -0.5570 0.0000
vn -0.3031 -0.9530 0.0000
vn 0.0000 0.8222 0.5692
vn -0.3950 0.9187 0.0000
vn 0.0000 0.0000 -1.0000
vn 0.0000 0.0000 1.0000
vn -1.0000 0.0000 0.0000
vn -0.8041 0.5944 0.0000
vn -0.9288 0.3706 0.0000
vn -0.9735 0.2287 0.0000
vn -0.9921 0.1258 0.0000
vn -0.9992 0.0403 0.0000
vn -0.7674 0.6412 0.0000
vn -0.7045 0.7097 0.0000
vn -0.6486 0.7611 0.0000
vn -0.5928 0.8053 0.0000
vn -0.5300 0.8480 0.0000
vn -0.4489 0.8936 0.0000
vn -0.9174 0.3980 -0.0000
vn -0.8984 0.4392 0.0000
vn -0.8818 0.4716 0.0000
vn -0.8653 0.5013 -0.0000
vn -0.8464 0.5325 -0.0000
vn -0.8214 0.5703 0.0000
vn -0.9694 0.2455 -0.0000
vn -0.9626 0.2709 0.0000
vn -0.9567 0.2911 0.0000
vn -0.9508 0.3099 0.0000
vn -0.9440 0.3298 -0.0000
vn -0.9350 0.3545 0.0000
vn -0.9904 0.1379 0.0000
vn -0.9877 0.1561 0.0000
vn -0.9853 0.1707 0.0000
vn -0.9829 0.1843 0.0000
vn -0.9800 0.1988 0.0000
vn -0.9762 0.2169 0.0000
vn -0.9987 0.0502 0.0000
vn -0.9979 0.0654 0.0000
vn -0.9970 0.0775 0.0000
vn -0.9961 0.0888 0.0000
vn -0.9949 0.1008 0.0000
vn -0.9933 0.1159 0.0000
vn -1.0000 0.0047 0.0000
vn -0.9999 0.0118 0.0000
vn -0.9998 0.0175 0.0000
vn -0.9997 0.0228 0.0000
vn -0.9996 0.0285 0.0000
vn -0.9994 0.0356 0.0000
vn 0.0000 0.8625 -0.5060
vn 0.0465 0.7106 0.7020
vn -0.9891 -0.1471 0.0000
vn -0.9992 -0.0389 0.0000
vn 0.9992 0.0389 0.0000
vn 0.0000 -1.0000 -0.0000
vn 0.0000 1.0000 0.0000
vn 0.0000 1.0000 0.0001
vn 0.0295 0.4518 0.8916
vn 0.0000 0.4615 -0.8871
vn 0.9994 -0.0348 -0.0000
vn -0.9788 0.2048 0.0000
vn -0.7989 0.6015 0.0000
vn -0.0062 -1.0000 0.0000
vn -0.0061 -0.9862 -0.1657
vn -0.0055 -0.8840 -0.4674
vn -0.0045 -0.7144 -0.6997
vn -0.0033 -0.5152 -0.8570
vn -0.0020 -0.3087 -0.9512
vn -0.0007 -0.1026 -0.9947
vn -0.0061 -0.9861 0.1659
vn -0.0055 -0.8839 0.4677
vn -0.0044 -0.7141 0.7000
vn -0.0032 -0.5149 0.8573
vn -0.0020 -0.3084 0.9513
vn -0.0007 -0.1025 0.9947
vn 0.0000 1.0000 -0.0001
vn 0.0000 0.5942 0.8043
vn 0.0220 0.3360 -0.9416
vn -0.0061 -0.9861 -0.1659
vn -0.0055 -0.8839 -0.4677
vn -0.0044 -0.7141 -0.7000
vn -0.0032 -0.5149 -0.8573
vn -0.0020 -0.3084 -0.9513
vn -0.0007 -0.1025 -0.9947
vn -0.0061 -0.9862 0.1657
vn -0.0055 -0.8840 0.4674
vn -0.0045 -0.7144 0.6997
vn -0.0033 -0.5152 0.8570
vn -0.0020 -0.3087 0.9512
vn -0.0007 -0.1026 0.9947
usemtl Lame
s off
f 12/1/1 15/2/1 11/3/1
f 18/4/2 22/5/2 19/6/2
f 9/7/3 15/8/3 13/9/3
f 10/10/4 16/11/4 12/12/4
f 10/13/5 13/14/5 14/15/5
f 17/16/6 66/17/6 22/18/6
f 16/19/7 18/20/7 15/21/7
f 13/22/8 20/23/8 14/24/8
f 14/25/9 21/26/9 16/27/9
f 15/28/2 19/6/2 13/29/2
f 136/30/10 73/31/10 67/32/10
f 129/33/11 80/34/11 74/35/11
f 122/36/12 87/37/12 81/38/12
f 115/39/13 94/40/13 88/41/13
f 140/42/7 137/43/7 130/44/7
f 20/45/9 101/46/9 21/26/9
f 108/47/14 59/48/14 95/49/14
f 67/32/15 138/50/15 136/30/15
f 72/51/16 139/52/16 138/53/16
f 71/54/17 140/55/17 139/52/17
f 70/56/18 141/57/18 140/55/18
f 69/58/19 142/59/19 141/57/19
f 68/60/20 137/61/20 142/59/20
f 74/35/21 131/62/21 129/33/21
f 79/63/22 132/64/22 131/62/22
f 78/65/23 133/66/23 132/64/23
f 77/67/24 134/68/24 133/66/24
f 76/69/25 135/70/25 134/68/25
f 75/71/26 130/72/26 135/70/26
f 81/38/27 124/73/27 122/36/27
f 86/74/28 125/75/28 124/73/28
f 85/76/29 126/77/29 125/75/29
f 84/78/30 127/79/30 126/77/30
f 83/80/31 128/81/31 127/79/31
f 82/82/32 123/83/32 128/81/32
f 88/41/33 117/84/33 115/39/33
f 93/85/34 118/86/34 117/84/34
f 92/87/35 119/88/35 118/86/35
f 91/89/36 120/90/36 119/88/36
f 90/91/37 121/92/37 120/90/37
f 121/92/38 87/37/38 116/93/38
f 95/49/39 110/94/39 108/47/39
f 100/95/40 111/96/40 110/94/40
f 99/97/41 112/98/41 111/96/41
f 98/99/42 113/100/42 112/98/42
f 97/101/43 114/102/43 113/100/43
f 96/103/44 109/104/44 114/102/44
f 60/105/45 103/106/45 101/46/45
f 65/107/46 104/108/46 103/106/46
f 64/109/47 105/110/47 104/108/47
f 63/111/48 106/112/48 105/110/48
f 62/113/49 107/114/49 106/112/49
f 61/115/50 102/116/50 107/114/50
f 66/117/8 70/118/8 73/119/8
f 12/1/51 16/120/51 15/2/51
f 18/4/2 17/121/2 22/5/2
f 9/7/3 11/122/3 15/8/3
f 10/10/4 14/123/4 16/11/4
f 10/13/52 9/124/52 13/14/52
f 17/16/6 137/61/6 66/17/6
f 16/19/7 21/125/7 18/20/7
f 13/22/8 19/126/8 20/23/8
f 14/25/9 20/45/9 21/26/9
f 15/28/2 18/4/2 19/6/2
f 136/30/10 130/72/10 73/31/10
f 129/33/11 123/83/11 80/34/11
f 122/36/12 116/93/12 87/37/12
f 115/39/13 109/104/13 94/40/13
f 17/127/7 18/20/7 122/128/7
f 18/20/7 21/125/7 101/129/7
f 17/127/7 125/130/7 126/131/7
f 101/129/7 103/132/7 18/20/7
f 103/132/7 104/133/7 18/20/7
f 104/133/7 105/134/7 18/20/7
f 105/134/7 106/135/7 18/20/7
f 106/135/7 107/136/7 18/20/7
f 107/136/7 102/137/7 18/20/7
f 102/137/7 108/138/7 18/20/7
f 108/138/7 110/139/7 18/20/7
f 110/139/7 111/140/7 18/20/7
f 111/140/7 112/141/7 18/20/7
f 112/141/7 113/142/7 18/20/7
f 113/142/7 114/143/7 18/20/7
f 114/143/7 109/144/7 18/20/7
f 109/144/7 115/145/7 18/20/7
f 115/145/7 117/146/7 18/20/7
f 117/146/7 118/147/7 18/20/7
f 118/147/7 119/148/7 18/20/7
f 119/148/7 120/149/7 18/20/7
f 120/149/7 121/150/7 18/20/7
f 121/150/7 116/151/7 18/20/7
f 116/151/7 122/128/7 18/20/7
f 122/128/7 124/152/7 17/127/7
f 124/152/7 125/130/7 17/127/7
f 126/131/7 127/153/7 17/127/7
f 127/153/7 128/154/7 17/127/7
f 128/154/7 123/155/7 17/127/7
f 123/155/7 129/156/7 17/127/7
f 129/156/7 131/157/7 17/127/7
f 131/157/7 132/158/7 17/127/7
f 132/158/7 133/159/7 17/127/7
f 133/159/7 134/160/7 17/127/7
f 134/160/7 135/161/7 17/127/7
f 17/127/7 135/161/7 137/43/7
f 135/161/7 130/44/7 137/43/7
f 130/44/7 136/162/7 139/163/7
f 137/43/7 140/42/7 141/164/7
f 136/162/7 138/165/7 139/163/7
f 139/163/7 140/42/7 130/44/7
f 141/164/7 142/166/7 137/43/7
f 20/45/9 60/105/9 101/46/9
f 108/47/14 102/116/14 59/48/14
f 67/32/15 72/167/15 138/50/15
f 72/51/16 71/54/16 139/52/16
f 71/54/17 70/56/17 140/55/17
f 70/56/18 69/58/18 141/57/18
f 69/58/19 68/60/19 142/59/19
f 68/60/20 66/17/20 137/61/20
f 74/35/21 79/63/21 131/62/21
f 79/63/22 78/65/22 132/64/22
f 78/65/23 77/67/23 133/66/23
f 77/67/24 76/69/24 134/68/24
f 76/69/25 75/71/25 135/70/25
f 75/71/26 73/31/26 130/72/26
f 81/38/27 86/74/27 124/73/27
f 86/74/28 85/76/28 125/75/28
f 85/76/29 84/78/29 126/77/29
f 84/78/30 83/80/30 127/79/30
f 83/80/31 82/82/31 128/81/31
f 82/82/32 80/34/32 123/83/32
f 88/41/33 93/85/33 117/84/33
f 93/85/34 92/87/34 118/86/34
f 92/87/35 91/89/35 119/88/35
f 91/89/36 90/91/36 120/90/36
f 90/91/37 89/168/37 121/92/37
f 121/92/38 89/168/38 87/37/38
f 95/49/39 100/95/39 110/94/39
f 100/95/40 99/97/40 111/96/40
f 99/97/41 98/99/41 112/98/41
f 98/99/42 97/101/42 113/100/42
f 97/101/43 96/103/43 114/102/43
f 96/103/44 94/40/44 109/104/44
f 60/105/45 65/107/45 103/106/45
f 65/107/46 64/109/46 104/108/46
f 64/109/47 63/111/47 105/110/47
f 63/111/48 62/113/48 106/112/48
f 62/113/49 61/115/49 107/114/49
f 61/115/50 59/48/50 102/116/50
f 60/169/8 20/23/8 19/126/8
f 19/126/8 22/170/8 81/171/8
f 22/170/8 66/117/8 75/172/8
f 80/173/8 22/170/8 74/174/8
f 66/117/8 68/175/8 69/176/8
f 69/176/8 70/118/8 66/117/8
f 70/118/8 71/177/8 73/119/8
f 73/119/8 71/177/8 67/178/8
f 71/177/8 72/179/8 67/178/8
f 73/119/8 75/172/8 66/117/8
f 75/172/8 76/180/8 22/170/8
f 76/180/8 77/181/8 22/170/8
f 77/181/8 78/182/8 22/170/8
f 78/182/8 79/183/8 22/170/8
f 79/183/8 74/174/8 22/170/8
f 80/173/8 82/184/8 22/170/8
f 82/184/8 83/185/8 22/170/8
f 83/185/8 84/186/8 22/170/8
f 84/186/8 85/187/8 22/170/8
f 85/187/8 86/188/8 22/170/8
f 86/188/8 81/171/8 22/170/8
f 81/171/8 87/189/8 19/126/8
f 87/189/8 89/190/8 19/126/8
f 89/190/8 90/191/8 19/126/8
f 90/191/8 91/192/8 19/126/8
f 91/192/8 92/193/8 19/126/8
f 92/193/8 93/194/8 19/126/8
f 93/194/8 88/195/8 19/126/8
f 88/195/8 94/196/8 19/126/8
f 94/196/8 96/197/8 19/126/8
f 96/197/8 97/198/8 19/126/8
f 97/198/8 98/199/8 19/126/8
f 98/199/8 99/200/8 19/126/8
f 99/200/8 100/201/8 19/126/8
f 100/201/8 95/202/8 19/126/8
f 95/202/8 59/203/8 19/126/8
f 59/203/8 61/204/8 19/126/8
f 61/204/8 62/205/8 19/126/8
f 62/205/8 63/206/8 19/126/8
f 63/206/8 64/207/8 19/126/8
f 64/207/8 65/208/8 19/126/8
f 65/208/8 60/169/8 19/126/8
usemtl Manche
f 3/209/53 10/210/53 12/211/53
f 5/212/8 24/213/8 25/214/8
f 6/215/54 26/216/54 24/217/54
f 38/218/8 30/219/8 53/220/8
f 7/221/55 25/222/55 23/223/55
f 26/224/7 7/225/7 23/226/7
f 4/227/56 5/228/56 2/229/56
f 1/230/57 5/231/57 7/232/57
f 3/233/57 6/234/57 4/235/57
f 3/233/58 7/232/58 8/236/58
f 4/237/59 9/238/59 10/239/59
f 3/240/60 11/241/60 1/242/60
f 1/243/61 9/7/61 2/244/61
f 26/224/7 27/245/7 29/246/7
f 23/223/55 28/247/55 27/248/55
f 24/217/62 29/249/62 30/250/62
f 28/251/8 24/213/8 30/219/8
f 50/252/63 51/253/63 46/254/63
f 31/255/64 52/256/64 46/257/64
f 42/258/55 39/259/55 35/260/55
f 31/255/65 51/261/65 33/262/65
f 33/262/66 50/263/66 34/264/66
f 34/265/67 49/266/67 35/267/67
f 35/267/68 48/268/68 36/269/68
f 36/269/69 47/270/69 37/271/69
f 37/271/70 45/272/70 32/273/70
f 39/274/71 54/275/71 52/256/71
f 44/276/72 55/277/72 54/275/72
f 43/278/73 56/279/73 55/280/73
f 42/281/74 57/282/74 56/279/74
f 41/283/75 58/284/75 57/282/75
f 40/285/76 53/220/76 58/284/76
f 29/246/7 32/273/7 45/272/7
f 3/209/53 4/286/53 10/210/53
f 5/212/8 6/287/8 24/213/8
f 6/215/54 8/288/54 26/216/54
f 38/218/8 28/251/8 30/219/8
f 7/221/55 5/289/55 25/222/55
f 26/224/7 8/290/7 7/225/7
f 4/227/56 6/291/56 5/228/56
f 1/230/57 2/292/57 5/231/57
f 3/233/57 8/236/57 6/234/57
f 3/233/77 1/230/77 7/232/77
f 4/237/78 2/293/78 9/238/78
f 3/240/79 12/294/79 11/241/79
f 1/243/61 11/122/61 9/7/61
f 26/224/7 23/226/7 27/245/7
f 23/223/55 25/222/55 28/247/55
f 24/217/62 26/216/62 29/249/62
f 28/251/8 25/214/8 24/213/8
f 46/254/63 52/295/63 55/296/63
f 52/295/63 54/297/63 55/296/63
f 55/296/63 56/298/63 50/252/63
f 46/254/63 55/296/63 50/252/63
f 56/298/63 57/299/63 48/300/63
f 57/299/63 58/301/63 48/300/63
f 58/301/63 53/302/63 45/303/63
f 53/302/63 30/250/63 45/303/63
f 30/250/63 29/249/63 45/303/63
f 45/303/63 47/304/63 58/301/63
f 47/304/63 48/300/63 58/301/63
f 48/300/63 49/305/63 56/298/63
f 49/305/63 50/252/63 56/298/63
f 31/255/64 39/274/64 52/256/64
f 39/259/55 31/306/55 35/260/55
f 31/306/55 33/307/55 34/308/55
f 34/308/55 35/260/55 31/306/55
f 35/260/55 36/309/55 41/310/55
f 36/309/55 37/311/55 41/310/55
f 37/311/55 32/312/55 40/313/55
f 32/312/55 27/248/55 38/314/55
f 37/311/55 40/313/55 41/310/55
f 27/248/55 28/247/55 38/314/55
f 38/314/55 40/313/55 32/312/55
f 41/310/55 42/258/55 35/260/55
f 42/258/55 43/315/55 39/259/55
f 43/315/55 44/316/55 39/259/55
f 31/255/80 46/257/80 51/261/80
f 33/262/81 51/261/81 50/263/81
f 34/265/82 50/317/82 49/266/82
f 35/267/83 49/266/83 48/268/83
f 36/269/84 48/268/84 47/270/84
f 37/271/85 47/270/85 45/272/85
f 39/274/86 44/276/86 54/275/86
f 44/276/87 43/318/87 55/277/87
f 43/278/88 42/281/88 56/279/88
f 42/281/89 41/283/89 57/282/89
f 41/283/90 40/285/90 58/284/90
f 40/285/91 38/218/91 53/220/91
f 29/246/7 27/245/7 32/273/7
