# Blender v2.80 (sub 45) OBJ File: 'date.blend'
# www.blender.org
o Text
v 0.427994 0.200000 -0.199029
v 0.149676 0.200000 -0.199029
v 0.149676 0.200000 -0.078479
v 0.351942 0.200000 -0.078479
v 0.428803 0.200000 0.002427
v 0.428803 0.200000 0.204693
v 0.353560 0.200000 0.283172
v 0.119741 0.200000 0.283172
v 0.044498 0.200000 0.204693
v 0.044498 0.200000 0.080906
v 0.140777 0.200000 0.080906
v 0.140777 0.200000 0.199029
v 0.332524 0.200000 0.199029
v 0.332524 0.200000 -0.009709
v 0.060680 0.200000 -0.009709
v 0.060680 0.200000 -0.283172
v 0.427994 0.200000 -0.283172
v -0.044498 0.200000 -0.203883
v -0.044498 0.200000 0.204693
v -0.119741 0.200000 0.283172
v -0.353560 0.200000 0.283172
v -0.428803 0.200000 0.204693
v -0.428803 0.200000 -0.203883
v -0.353560 0.200000 -0.283172
v -0.119741 0.200000 -0.283172
v -0.333333 0.200000 0.199838
v -0.139968 0.200000 0.199838
v -0.139968 0.200000 -0.199838
v -0.333333 0.200000 -0.199838
v 0.427994 -0.200000 -0.199029
v 0.149676 -0.200000 -0.199029
v 0.149676 -0.200000 -0.078479
v 0.351942 -0.200000 -0.078479
v 0.428803 -0.200000 0.002427
v 0.428803 -0.200000 0.204693
v 0.353560 -0.200000 0.283172
v 0.119741 -0.200000 0.283172
v 0.044498 -0.200000 0.204693
v 0.044498 -0.200000 0.080906
v 0.140777 -0.200000 0.080906
v 0.140777 -0.200000 0.199029
v 0.332524 -0.200000 0.199029
v 0.332524 -0.200000 -0.009709
v 0.060680 -0.200000 -0.009709
v 0.060680 -0.200000 -0.283172
v 0.427994 -0.200000 -0.283172
v -0.044498 -0.200000 -0.203883
v -0.044498 -0.200000 0.204693
v -0.119741 -0.200000 0.283172
v -0.353560 -0.200000 0.283172
v -0.428803 -0.200000 0.204693
v -0.428803 -0.200000 -0.203883
v -0.353560 -0.200000 -0.283172
v -0.119741 -0.200000 -0.283172
v -0.333333 -0.200000 0.199838
v -0.139968 -0.200000 0.199838
v -0.139968 -0.200000 -0.199838
v -0.333333 -0.200000 -0.199838
v -0.044498 -0.200000 -0.203883
v -0.044498 0.200000 -0.203883
v -0.044498 -0.200000 0.204693
v -0.044498 0.200000 0.204693
v -0.119741 -0.200000 0.283172
v -0.119741 0.200000 0.283172
v -0.353560 -0.200000 0.283172
v -0.353560 0.200000 0.283172
v -0.428803 -0.200000 0.204693
v -0.428803 0.200000 0.204693
v -0.428803 -0.200000 -0.203883
v -0.428803 0.200000 -0.203883
v -0.353560 -0.200000 -0.283172
v -0.353560 0.200000 -0.283172
v -0.119741 -0.200000 -0.283172
v -0.119741 0.200000 -0.283172
v -0.333333 -0.200000 0.199838
v -0.333333 0.200000 0.199838
v -0.139968 -0.200000 0.199838
v -0.139968 0.200000 0.199838
v -0.139968 -0.200000 -0.199838
v -0.139968 0.200000 -0.199838
v -0.333333 -0.200000 -0.199838
v -0.333333 0.200000 -0.199838
v 0.427994 -0.200000 -0.199029
v 0.427994 0.200000 -0.199029
v 0.149676 -0.200000 -0.199029
v 0.149676 0.200000 -0.199029
v 0.149676 -0.200000 -0.078479
v 0.149676 0.200000 -0.078479
v 0.351942 -0.200000 -0.078479
v 0.351942 0.200000 -0.078479
v 0.428803 -0.200000 0.002427
v 0.428803 0.200000 0.002427
v 0.428803 -0.200000 0.204693
v 0.428803 0.200000 0.204693
v 0.353560 -0.200000 0.283172
v 0.353560 0.200000 0.283172
v 0.119741 -0.200000 0.283172
v 0.119741 0.200000 0.283172
v 0.044498 -0.200000 0.204693
v 0.044498 0.200000 0.204693
v 0.044498 -0.200000 0.080906
v 0.044498 0.200000 0.080906
v 0.140777 -0.200000 0.080906
v 0.140777 0.200000 0.080906
v 0.140777 -0.200000 0.199029
v 0.140777 0.200000 0.199029
v 0.332524 -0.200000 0.199029
v 0.332524 0.200000 0.199029
v 0.332524 -0.200000 -0.009709
v 0.332524 0.200000 -0.009709
v 0.060680 -0.200000 -0.009709
v 0.060680 0.200000 -0.009709
v 0.060680 -0.200000 -0.283172
v 0.060680 0.200000 -0.283172
v 0.427994 -0.200000 -0.283172
v 0.427994 0.200000 -0.283172
vn 0.0000 1.0000 0.0000
vn 0.0000 -1.0000 0.0000
vn 0.9279 0.0000 0.3729
vn 0.9288 0.0000 -0.3706
vn 0.3924 0.0000 0.9198
vn -0.3924 0.0000 0.9198
vn -0.9279 0.0000 0.3729
vn -0.9288 0.0000 -0.3706
vn -0.3947 0.0000 -0.9188
vn 0.3947 0.0000 -0.9188
vn -0.7071 0.0000 -0.7071
vn 0.7071 0.0000 -0.7071
vn -0.7071 0.0000 0.7071
vn 0.7071 0.0000 0.7071
vn 0.3945 0.0000 -0.9189
vn 0.9287 0.0000 -0.3708
s off
f 15//1 2//1 16//1
f 2//1 17//1 16//1
f 2//1 1//1 17//1
f 15//1 3//1 2//1
f 15//1 4//1 3//1
f 15//1 14//1 4//1
f 14//1 5//1 4//1
f 13//1 5//1 14//1
f 13//1 6//1 5//1
f 9//1 11//1 10//1
f 9//1 12//1 11//1
f 9//1 13//1 12//1
f 9//1 6//1 13//1
f 8//1 6//1 9//1
f 8//1 7//1 6//1
f 23//1 25//1 24//1
f 23//1 18//1 25//1
f 22//1 29//1 23//1
f 29//1 18//1 23//1
f 29//1 28//1 18//1
f 28//1 19//1 18//1
f 22//1 26//1 29//1
f 27//1 19//1 28//1
f 22//1 27//1 26//1
f 22//1 19//1 27//1
f 21//1 19//1 22//1
f 21//1 20//1 19//1
f 31//2 44//2 45//2
f 46//2 31//2 45//2
f 30//2 31//2 46//2
f 32//2 44//2 31//2
f 33//2 44//2 32//2
f 43//2 44//2 33//2
f 34//2 43//2 33//2
f 34//2 42//2 43//2
f 35//2 42//2 34//2
f 40//2 38//2 39//2
f 41//2 38//2 40//2
f 42//2 38//2 41//2
f 35//2 38//2 42//2
f 35//2 37//2 38//2
f 36//2 37//2 35//2
f 54//2 52//2 53//2
f 47//2 52//2 54//2
f 58//2 51//2 52//2
f 47//2 58//2 52//2
f 57//2 58//2 47//2
f 48//2 57//2 47//2
f 55//2 51//2 58//2
f 48//2 56//2 57//2
f 56//2 51//2 55//2
f 48//2 51//2 56//2
f 48//2 50//2 51//2
f 49//2 50//2 48//2
s 1
f 62//3 59//4 60//4
f 64//5 61//3 62//3
f 66//6 63//5 64//5
f 68//7 65//6 66//6
f 70//8 67//7 68//7
f 72//9 69//8 70//8
f 74//10 71//9 72//9
f 60//4 73//10 74//10
f 78//11 75//12 76//12
f 80//13 77//11 78//11
f 82//14 79//13 80//13
f 76//12 81//14 82//14
f 86//14 83//14 84//14
f 88//12 85//14 86//14
f 90//15 87//12 88//12
f 92//16 89//15 90//15
f 94//3 91//16 92//16
f 96//5 93//3 94//3
f 98//6 95//5 96//5
f 100//7 97//6 98//6
f 102//11 99//7 100//7
f 104//12 101//11 102//11
f 106//12 103//12 104//12
f 108//11 105//12 106//12
f 110//13 107//11 108//11
f 112//13 109//13 110//13
f 114//11 111//13 112//13
f 116//12 113//11 114//11
f 84//14 115//12 116//12
f 62//3 61//3 59//4
f 64//5 63//5 61//3
f 66//6 65//6 63//5
f 68//7 67//7 65//6
f 70//8 69//8 67//7
f 72//9 71//9 69//8
f 74//10 73//10 71//9
f 60//4 59//4 73//10
f 78//11 77//11 75//12
f 80//13 79//13 77//11
f 82//14 81//14 79//13
f 76//12 75//12 81//14
f 86//14 85//14 83//14
f 88//12 87//12 85//14
f 90//15 89//15 87//12
f 92//16 91//16 89//15
f 94//3 93//3 91//16
f 96//5 95//5 93//3
f 98//6 97//6 95//5
f 100//7 99//7 97//6
f 102//11 101//11 99//7
f 104//12 103//12 101//11
f 106//12 105//12 103//12
f 108//11 107//11 105//12
f 110//13 109//13 107//11
f 112//13 111//13 109//13
f 114//11 113//11 111//13
f 116//12 115//12 113//11
f 84//14 83//14 115//12
