# Blender v2.80 (sub 45) OBJ File: 'date.blend'
# www.blender.org
mtllib date_27.mtl
o Text
v 0.082000 0.200000 0.312000
v 0.332000 0.200000 -0.248000
v 0.037000 0.200000 -0.248000
v 0.037000 0.200000 -0.341000
v 0.478000 0.200000 -0.341000
v 0.169000 0.200000 0.350000
v -0.478000 0.200000 0.341000
v -0.478000 0.200000 0.334000
v -0.458689 0.200000 0.310596
v -0.438431 0.200000 0.286019
v -0.417484 0.200000 0.260469
v -0.396111 0.200000 0.234148
v -0.374571 0.200000 0.207258
v -0.353125 0.200000 0.180000
v -0.332033 0.200000 0.152575
v -0.311556 0.200000 0.125185
v -0.291953 0.200000 0.098031
v -0.273486 0.200000 0.071315
v -0.256415 0.200000 0.045237
v -0.241000 0.200000 0.020000
v -0.233333 0.200000 0.006662
v -0.226333 0.200000 -0.005954
v -0.220000 0.200000 -0.018000
v -0.214333 0.200000 -0.029630
v -0.209333 0.200000 -0.040995
v -0.205000 0.200000 -0.052250
v -0.201333 0.200000 -0.063546
v -0.198333 0.200000 -0.075037
v -0.196000 0.200000 -0.086875
v -0.194333 0.200000 -0.099213
v -0.193333 0.200000 -0.112204
v -0.193000 0.200000 -0.126000
v -0.194023 0.200000 -0.144274
v -0.197014 0.200000 -0.161523
v -0.201859 0.200000 -0.177641
v -0.208444 0.200000 -0.192519
v -0.216655 0.200000 -0.206049
v -0.226375 0.200000 -0.218125
v -0.237491 0.200000 -0.228638
v -0.249889 0.200000 -0.237481
v -0.263453 0.200000 -0.244547
v -0.278069 0.200000 -0.249727
v -0.293623 0.200000 -0.252914
v -0.310000 0.200000 -0.254000
v -0.322273 0.200000 -0.253527
v -0.334602 0.200000 -0.252046
v -0.347000 0.200000 -0.249469
v -0.359481 0.200000 -0.245704
v -0.372060 0.200000 -0.240661
v -0.384750 0.200000 -0.234250
v -0.397565 0.200000 -0.226381
v -0.410519 0.200000 -0.216963
v -0.423625 0.200000 -0.205906
v -0.436898 0.200000 -0.193120
v -0.450352 0.200000 -0.178515
v -0.464000 0.200000 -0.162000
v -0.464000 0.200000 -0.285000
v -0.450329 0.200000 -0.295522
v -0.436796 0.200000 -0.305093
v -0.423375 0.200000 -0.313719
v -0.410037 0.200000 -0.321407
v -0.396755 0.200000 -0.328166
v -0.383500 0.200000 -0.334000
v -0.370245 0.200000 -0.338918
v -0.356963 0.200000 -0.342926
v -0.343625 0.200000 -0.346031
v -0.330204 0.200000 -0.348241
v -0.316671 0.200000 -0.349561
v -0.303000 0.200000 -0.350000
v -0.273069 0.200000 -0.348215
v -0.244884 0.200000 -0.342972
v -0.218609 0.200000 -0.334438
v -0.194407 0.200000 -0.322778
v -0.172442 0.200000 -0.308160
v -0.152875 0.200000 -0.290750
v -0.135871 0.200000 -0.270715
v -0.121593 0.200000 -0.248222
v -0.110203 0.200000 -0.223438
v -0.101866 0.200000 -0.196528
v -0.096744 0.200000 -0.167660
v -0.095000 0.200000 -0.137000
v -0.096268 0.200000 -0.109564
v -0.100148 0.200000 -0.082509
v -0.106750 0.200000 -0.055469
v -0.116185 0.200000 -0.028074
v -0.128565 0.200000 0.000043
v -0.144000 0.200000 0.029250
v -0.162602 0.200000 0.059915
v -0.184481 0.200000 0.092407
v -0.209750 0.200000 0.127094
v -0.238519 0.200000 0.164343
v -0.270898 0.200000 0.204522
v -0.307000 0.200000 0.248000
v -0.046000 0.200000 0.248000
v -0.046000 0.200000 0.341000
v 0.082000 -0.200000 0.312000
v 0.332000 -0.200000 -0.248000
v 0.037000 -0.200000 -0.248000
v 0.037000 -0.200000 -0.341000
v 0.478000 -0.200000 -0.341000
v 0.169000 -0.200000 0.350000
v -0.478000 -0.200000 0.341000
v -0.478000 -0.200000 0.334000
v -0.458689 -0.200000 0.310596
v -0.438431 -0.200000 0.286019
v -0.417484 -0.200000 0.260469
v -0.396111 -0.200000 0.234148
v -0.374571 -0.200000 0.207258
v -0.353125 -0.200000 0.180000
v -0.332033 -0.200000 0.152575
v -0.311556 -0.200000 0.125185
v -0.291953 -0.200000 0.098031
v -0.273486 -0.200000 0.071315
v -0.256415 -0.200000 0.045237
v -0.241000 -0.200000 0.020000
v -0.233333 -0.200000 0.006662
v -0.226333 -0.200000 -0.005954
v -0.220000 -0.200000 -0.018000
v -0.214333 -0.200000 -0.029630
v -0.209333 -0.200000 -0.040995
v -0.205000 -0.200000 -0.052250
v -0.201333 -0.200000 -0.063546
v -0.198333 -0.200000 -0.075037
v -0.196000 -0.200000 -0.086875
v -0.194333 -0.200000 -0.099213
v -0.193333 -0.200000 -0.112204
v -0.193000 -0.200000 -0.126000
v -0.194023 -0.200000 -0.144274
v -0.197014 -0.200000 -0.161523
v -0.201859 -0.200000 -0.177641
v -0.208444 -0.200000 -0.192519
v -0.216655 -0.200000 -0.206049
v -0.226375 -0.200000 -0.218125
v -0.237491 -0.200000 -0.228638
v -0.249889 -0.200000 -0.237481
v -0.263453 -0.200000 -0.244547
v -0.278069 -0.200000 -0.249727
v -0.293623 -0.200000 -0.252914
v -0.310000 -0.200000 -0.254000
v -0.322273 -0.200000 -0.253527
v -0.334602 -0.200000 -0.252046
v -0.347000 -0.200000 -0.249469
v -0.359481 -0.200000 -0.245704
v -0.372060 -0.200000 -0.240661
v -0.384750 -0.200000 -0.234250
v -0.397565 -0.200000 -0.226381
v -0.410519 -0.200000 -0.216963
v -0.423625 -0.200000 -0.205906
v -0.436898 -0.200000 -0.193120
v -0.450352 -0.200000 -0.178515
v -0.464000 -0.200000 -0.162000
v -0.464000 -0.200000 -0.285000
v -0.450329 -0.200000 -0.295522
v -0.436796 -0.200000 -0.305093
v -0.423375 -0.200000 -0.313719
v -0.410037 -0.200000 -0.321407
v -0.396755 -0.200000 -0.328166
v -0.383500 -0.200000 -0.334000
v -0.370245 -0.200000 -0.338918
v -0.356963 -0.200000 -0.342926
v -0.343625 -0.200000 -0.346031
v -0.330204 -0.200000 -0.348241
v -0.316671 -0.200000 -0.349561
v -0.303000 -0.200000 -0.350000
v -0.273069 -0.200000 -0.348215
v -0.244884 -0.200000 -0.342972
v -0.218609 -0.200000 -0.334438
v -0.194407 -0.200000 -0.322778
v -0.172442 -0.200000 -0.308160
v -0.152875 -0.200000 -0.290750
v -0.135871 -0.200000 -0.270715
v -0.121593 -0.200000 -0.248222
v -0.110203 -0.200000 -0.223438
v -0.101866 -0.200000 -0.196528
v -0.096744 -0.200000 -0.167660
v -0.095000 -0.200000 -0.137000
v -0.096268 -0.200000 -0.109564
v -0.100148 -0.200000 -0.082509
v -0.106750 -0.200000 -0.055469
v -0.116185 -0.200000 -0.028074
v -0.128565 -0.200000 0.000043
v -0.144000 -0.200000 0.029250
v -0.162602 -0.200000 0.059915
v -0.184481 -0.200000 0.092407
v -0.209750 -0.200000 0.127094
v -0.238519 -0.200000 0.164343
v -0.270898 -0.200000 0.204522
v -0.307000 -0.200000 0.248000
v -0.046000 -0.200000 0.248000
v -0.046000 -0.200000 0.341000
v -0.478000 -0.200000 0.341000
v -0.478000 0.200000 0.341000
v -0.478000 -0.200000 0.334000
v -0.478000 0.200000 0.334000
v -0.458689 -0.200000 0.310596
v -0.458689 0.200000 0.310596
v -0.438431 -0.200000 0.286019
v -0.438431 0.200000 0.286019
v -0.417484 -0.200000 0.260469
v -0.417484 0.200000 0.260469
v -0.396111 -0.200000 0.234148
v -0.396111 0.200000 0.234148
v -0.374571 -0.200000 0.207258
v -0.374571 0.200000 0.207258
v -0.353125 -0.200000 0.180000
v -0.353125 0.200000 0.180000
v -0.332033 -0.200000 0.152575
v -0.332033 0.200000 0.152575
v -0.311556 -0.200000 0.125185
v -0.311556 0.200000 0.125185
v -0.291953 -0.200000 0.098031
v -0.291953 0.200000 0.098031
v -0.273486 -0.200000 0.071315
v -0.273486 0.200000 0.071315
v -0.256415 -0.200000 0.045237
v -0.256415 0.200000 0.045237
v -0.241000 -0.200000 0.020000
v -0.241000 0.200000 0.020000
v -0.233333 -0.200000 0.006662
v -0.233333 0.200000 0.006662
v -0.226333 -0.200000 -0.005954
v -0.226333 0.200000 -0.005954
v -0.220000 -0.200000 -0.018000
v -0.220000 0.200000 -0.018000
v -0.214333 -0.200000 -0.029630
v -0.214333 0.200000 -0.029630
v -0.209333 -0.200000 -0.040995
v -0.209333 0.200000 -0.040995
v -0.205000 -0.200000 -0.052250
v -0.205000 0.200000 -0.052250
v -0.201333 -0.200000 -0.063546
v -0.201333 0.200000 -0.063546
v -0.198333 -0.200000 -0.075037
v -0.198333 0.200000 -0.075037
v -0.196000 -0.200000 -0.086875
v -0.196000 0.200000 -0.086875
v -0.194333 -0.200000 -0.099213
v -0.194333 0.200000 -0.099213
v -0.193333 -0.200000 -0.112204
v -0.193333 0.200000 -0.112204
v -0.193000 -0.200000 -0.126000
v -0.193000 0.200000 -0.126000
v -0.194023 -0.200000 -0.144274
v -0.194023 0.200000 -0.144274
v -0.197014 -0.200000 -0.161523
v -0.197014 0.200000 -0.161523
v -0.201859 -0.200000 -0.177641
v -0.201859 0.200000 -0.177641
v -0.208444 -0.200000 -0.192519
v -0.208444 0.200000 -0.192519
v -0.216655 -0.200000 -0.206049
v -0.216655 0.200000 -0.206049
v -0.226375 -0.200000 -0.218125
v -0.226375 0.200000 -0.218125
v -0.237491 -0.200000 -0.228638
v -0.237491 0.200000 -0.228638
v -0.249889 -0.200000 -0.237481
v -0.249889 0.200000 -0.237481
v -0.263453 -0.200000 -0.244547
v -0.263453 0.200000 -0.244547
v -0.278069 -0.200000 -0.249727
v -0.278069 0.200000 -0.249727
v -0.293623 -0.200000 -0.252914
v -0.293623 0.200000 -0.252914
v -0.310000 -0.200000 -0.254000
v -0.310000 0.200000 -0.254000
v -0.322273 -0.200000 -0.253527
v -0.322273 0.200000 -0.253527
v -0.334602 -0.200000 -0.252046
v -0.334602 0.200000 -0.252046
v -0.347000 -0.200000 -0.249469
v -0.347000 0.200000 -0.249469
v -0.359481 -0.200000 -0.245704
v -0.359481 0.200000 -0.245704
v -0.372060 -0.200000 -0.240661
v -0.372060 0.200000 -0.240661
v -0.384750 -0.200000 -0.234250
v -0.384750 0.200000 -0.234250
v -0.397565 -0.200000 -0.226381
v -0.397565 0.200000 -0.226381
v -0.410519 -0.200000 -0.216963
v -0.410519 0.200000 -0.216963
v -0.423625 -0.200000 -0.205906
v -0.423625 0.200000 -0.205906
v -0.436898 -0.200000 -0.193120
v -0.436898 0.200000 -0.193120
v -0.450352 -0.200000 -0.178515
v -0.450352 0.200000 -0.178515
v -0.464000 -0.200000 -0.162000
v -0.464000 0.200000 -0.162000
v -0.464000 -0.200000 -0.285000
v -0.464000 0.200000 -0.285000
v -0.450329 -0.200000 -0.295522
v -0.450329 0.200000 -0.295522
v -0.436796 -0.200000 -0.305093
v -0.436796 0.200000 -0.305093
v -0.423375 -0.200000 -0.313719
v -0.423375 0.200000 -0.313719
v -0.410037 -0.200000 -0.321407
v -0.410037 0.200000 -0.321407
v -0.396755 -0.200000 -0.328166
v -0.396755 0.200000 -0.328166
v -0.383500 -0.200000 -0.334000
v -0.383500 0.200000 -0.334000
v -0.370245 -0.200000 -0.338918
v -0.370245 0.200000 -0.338918
v -0.356963 -0.200000 -0.342926
v -0.356963 0.200000 -0.342926
v -0.343625 -0.200000 -0.346031
v -0.343625 0.200000 -0.346031
v -0.330204 -0.200000 -0.348241
v -0.330204 0.200000 -0.348241
v -0.316671 -0.200000 -0.349561
v -0.316671 0.200000 -0.349561
v -0.303000 -0.200000 -0.350000
v -0.303000 0.200000 -0.350000
v -0.273069 -0.200000 -0.348215
v -0.273069 0.200000 -0.348215
v -0.244884 -0.200000 -0.342972
v -0.244884 0.200000 -0.342972
v -0.218609 -0.200000 -0.334438
v -0.218609 0.200000 -0.334438
v -0.194407 -0.200000 -0.322778
v -0.194407 0.200000 -0.322778
v -0.172442 -0.200000 -0.308160
v -0.172442 0.200000 -0.308160
v -0.152875 -0.200000 -0.290750
v -0.152875 0.200000 -0.290750
v -0.135871 -0.200000 -0.270715
v -0.135871 0.200000 -0.270715
v -0.121593 -0.200000 -0.248222
v -0.121593 0.200000 -0.248222
v -0.110203 -0.200000 -0.223438
v -0.110203 0.200000 -0.223438
v -0.101866 -0.200000 -0.196528
v -0.101866 0.200000 -0.196528
v -0.096744 -0.200000 -0.167660
v -0.096744 0.200000 -0.167660
v -0.095000 -0.200000 -0.137000
v -0.095000 0.200000 -0.137000
v -0.096268 -0.200000 -0.109564
v -0.096268 0.200000 -0.109564
v -0.100148 -0.200000 -0.082509
v -0.100148 0.200000 -0.082509
v -0.106750 -0.200000 -0.055469
v -0.106750 0.200000 -0.055469
v -0.116185 -0.200000 -0.028074
v -0.116185 0.200000 -0.028074
v -0.128565 -0.200000 0.000043
v -0.128565 0.200000 0.000043
v -0.144000 -0.200000 0.029250
v -0.144000 0.200000 0.029250
v -0.162602 -0.200000 0.059915
v -0.162602 0.200000 0.059915
v -0.184481 -0.200000 0.092407
v -0.184481 0.200000 0.092407
v -0.209750 -0.200000 0.127094
v -0.209750 0.200000 0.127094
v -0.238519 -0.200000 0.164343
v -0.238519 0.200000 0.164343
v -0.270898 -0.200000 0.204522
v -0.270898 0.200000 0.204522
v -0.307000 -0.200000 0.248000
v -0.307000 0.200000 0.248000
v -0.046000 -0.200000 0.248000
v -0.046000 0.200000 0.248000
v -0.046000 -0.200000 0.341000
v -0.046000 0.200000 0.341000
v 0.082000 -0.200000 0.312000
v 0.082000 0.200000 0.312000
v 0.332000 -0.200000 -0.248000
v 0.332000 0.200000 -0.248000
v 0.037000 -0.200000 -0.248000
v 0.037000 0.200000 -0.248000
v 0.037000 -0.200000 -0.341000
v 0.037000 0.200000 -0.341000
v 0.478000 -0.200000 -0.341000
v 0.478000 0.200000 -0.341000
v 0.169000 -0.200000 0.350000
v 0.169000 0.200000 0.350000
vn 0.0000 1.0000 0.0000
vn 0.0000 -1.0000 0.0000
vn -0.7071 0.0000 0.7071
vn -0.9411 0.0000 -0.3381
vn -0.7715 0.0000 -0.6362
vn -0.7725 0.0000 -0.6350
vn -0.7748 0.0000 -0.6322
vn -0.7784 0.0000 -0.6278
vn -0.7832 0.0000 -0.6218
vn -0.7893 0.0000 -0.6140
vn -0.7968 0.0000 -0.6042
vn -0.8059 0.0000 -0.5921
vn -0.8167 0.0000 -0.5770
vn -0.8297 0.0000 -0.5582
vn -0.8451 0.0000 -0.5345
vn -0.8603 0.0000 -0.5098
vn -0.8707 0.0000 -0.4917
vn -0.8798 0.0000 -0.4753
vn -0.8921 0.0000 -0.4517
vn -0.9073 0.0000 -0.4204
vn -0.9245 0.0000 -0.3811
vn -0.9425 0.0000 -0.3341
vn -0.9597 0.0000 -0.2808
vn -0.9748 0.0000 -0.2231
vn -0.9865 0.0000 -0.1637
vn -0.9944 0.0000 -0.1053
vn -0.9987 0.0000 -0.0504
vn -0.9998 0.0000 0.0159
vn -0.9935 0.0000 0.1135
vn -0.9732 0.0000 0.2298
vn -0.9379 0.0000 0.3470
vn -0.8865 0.0000 0.4627
vn -0.8187 0.0000 0.5741
vn -0.7347 0.0000 0.6783
vn -0.6354 0.0000 0.7721
vn -0.5226 0.0000 0.8526
vn -0.3990 0.0000 0.9170
vn -0.2680 0.0000 0.9634
vn -0.1338 0.0000 0.9910
vn -0.0138 0.0000 0.9999
vn 0.0789 0.0000 0.9969
vn 0.1615 0.0000 0.9868
vn 0.2464 0.0000 0.9691
vn 0.3308 0.0000 0.9437
vn 0.4119 0.0000 0.9112
vn 0.4875 0.0000 0.8731
vn 0.5561 0.0000 0.8311
vn 0.6168 0.0000 0.7871
vn 0.6696 0.0000 0.7427
vn 0.7149 0.0000 0.6991
vn 0.7534 0.0000 0.6575
vn -0.3385 0.0000 0.9409
vn -0.8972 0.0000 -0.4416
vn -0.5938 0.0000 -0.8046
vn -0.5592 0.0000 -0.8290
vn -0.5202 0.0000 -0.8540
vn -0.4766 0.0000 -0.8791
vn -0.4283 0.0000 -0.9036
vn -0.3755 0.0000 -0.9268
vn -0.3185 0.0000 -0.9479
vn -0.2579 0.0000 -0.9662
vn -0.1947 0.0000 -0.9808
vn -0.1298 0.0000 -0.9915
vn -0.0646 0.0000 -0.9979
vn 0.0137 0.0000 -0.9999
vn 0.1214 0.0000 -0.9926
vn 0.2464 0.0000 -0.9691
vn 0.3723 0.0000 -0.9281
vn 0.4952 0.0000 -0.8688
vn 0.6109 0.0000 -0.7917
vn 0.7153 0.0000 -0.6988
vn 0.8052 0.0000 -0.5929
vn 0.8784 0.0000 -0.4778
vn 0.9339 0.0000 -0.3575
vn 0.9718 0.0000 -0.2358
vn 0.9933 0.0000 -0.1159
vn 1.0000 0.0000 -0.0053
vn 0.9955 0.0000 0.0941
vn 0.9818 0.0000 0.1898
vn 0.9595 0.0000 0.2817
vn 0.9312 0.0000 0.3646
vn 0.9002 0.0000 0.4354
vn 0.8699 0.0000 0.4931
vn 0.8425 0.0000 0.5387
vn 0.8190 0.0000 0.5738
vn 0.7999 0.0000 0.6001
vn 0.7851 0.0000 0.6194
vn 0.7740 0.0000 0.6332
vn 0.9052 0.0000 -0.4249
vn 0.7071 0.0000 -0.7071
vn 0.7071 0.0000 0.7071
vn -0.9325 0.0000 0.3612
vn -0.8389 0.0000 0.5442
vn -0.7071 0.0000 -0.7071
vn 0.8391 0.0000 -0.5439
vn 0.3609 0.0000 0.9326
usemtl None
s off
f 3//1 5//1 4//1
f 3//1 2//1 5//1
f 2//1 6//1 5//1
f 1//1 6//1 2//1
f 68//1 70//1 69//1
f 67//1 70//1 68//1
f 66//1 70//1 67//1
f 66//1 71//1 70//1
f 65//1 71//1 66//1
f 65//1 72//1 71//1
f 64//1 72//1 65//1
f 63//1 72//1 64//1
f 63//1 73//1 72//1
f 62//1 73//1 63//1
f 61//1 73//1 62//1
f 61//1 74//1 73//1
f 60//1 74//1 61//1
f 59//1 74//1 60//1
f 59//1 75//1 74//1
f 58//1 75//1 59//1
f 57//1 75//1 58//1
f 57//1 76//1 75//1
f 56//1 55//1 57//1
f 55//1 54//1 57//1
f 54//1 53//1 57//1
f 53//1 52//1 57//1
f 52//1 51//1 57//1
f 51//1 50//1 57//1
f 50//1 49//1 57//1
f 49//1 48//1 57//1
f 48//1 47//1 57//1
f 47//1 46//1 57//1
f 46//1 45//1 57//1
f 45//1 76//1 57//1
f 45//1 44//1 76//1
f 44//1 77//1 76//1
f 43//1 77//1 44//1
f 42//1 77//1 43//1
f 41//1 77//1 42//1
f 41//1 78//1 77//1
f 40//1 78//1 41//1
f 39//1 78//1 40//1
f 38//1 78//1 39//1
f 38//1 79//1 78//1
f 37//1 79//1 38//1
f 36//1 79//1 37//1
f 36//1 80//1 79//1
f 35//1 80//1 36//1
f 34//1 80//1 35//1
f 34//1 81//1 80//1
f 33//1 81//1 34//1
f 32//1 81//1 33//1
f 32//1 82//1 81//1
f 31//1 82//1 32//1
f 30//1 82//1 31//1
f 30//1 83//1 82//1
f 29//1 83//1 30//1
f 28//1 83//1 29//1
f 28//1 84//1 83//1
f 27//1 84//1 28//1
f 26//1 84//1 27//1
f 26//1 85//1 84//1
f 25//1 85//1 26//1
f 24//1 85//1 25//1
f 23//1 85//1 24//1
f 23//1 86//1 85//1
f 22//1 86//1 23//1
f 21//1 86//1 22//1
f 21//1 87//1 86//1
f 20//1 87//1 21//1
f 19//1 87//1 20//1
f 19//1 88//1 87//1
f 18//1 88//1 19//1
f 18//1 89//1 88//1
f 17//1 89//1 18//1
f 17//1 90//1 89//1
f 16//1 90//1 17//1
f 15//1 90//1 16//1
f 15//1 91//1 90//1
f 14//1 91//1 15//1
f 14//1 92//1 91//1
f 13//1 92//1 14//1
f 13//1 93//1 92//1
f 12//1 93//1 13//1
f 11//1 93//1 12//1
f 11//1 94//1 93//1
f 11//1 95//1 94//1
f 10//1 95//1 11//1
f 9//1 95//1 10//1
f 8//1 95//1 9//1
f 7//1 95//1 8//1
f 100//2 98//2 99//2
f 97//2 98//2 100//2
f 101//2 97//2 100//2
f 101//2 96//2 97//2
f 165//2 163//2 164//2
f 165//2 162//2 163//2
f 165//2 161//2 162//2
f 166//2 161//2 165//2
f 166//2 160//2 161//2
f 167//2 160//2 166//2
f 167//2 159//2 160//2
f 167//2 158//2 159//2
f 168//2 158//2 167//2
f 168//2 157//2 158//2
f 168//2 156//2 157//2
f 169//2 156//2 168//2
f 169//2 155//2 156//2
f 169//2 154//2 155//2
f 170//2 154//2 169//2
f 170//2 153//2 154//2
f 170//2 152//2 153//2
f 171//2 152//2 170//2
f 150//2 151//2 152//2
f 149//2 150//2 152//2
f 148//2 149//2 152//2
f 147//2 148//2 152//2
f 146//2 147//2 152//2
f 145//2 146//2 152//2
f 144//2 145//2 152//2
f 143//2 144//2 152//2
f 142//2 143//2 152//2
f 141//2 142//2 152//2
f 140//2 141//2 152//2
f 171//2 140//2 152//2
f 139//2 140//2 171//2
f 172//2 139//2 171//2
f 172//2 138//2 139//2
f 172//2 137//2 138//2
f 172//2 136//2 137//2
f 173//2 136//2 172//2
f 173//2 135//2 136//2
f 173//2 134//2 135//2
f 173//2 133//2 134//2
f 174//2 133//2 173//2
f 174//2 132//2 133//2
f 174//2 131//2 132//2
f 175//2 131//2 174//2
f 175//2 130//2 131//2
f 175//2 129//2 130//2
f 176//2 129//2 175//2
f 176//2 128//2 129//2
f 176//2 127//2 128//2
f 177//2 127//2 176//2
f 177//2 126//2 127//2
f 177//2 125//2 126//2
f 178//2 125//2 177//2
f 178//2 124//2 125//2
f 178//2 123//2 124//2
f 179//2 123//2 178//2
f 179//2 122//2 123//2
f 179//2 121//2 122//2
f 180//2 121//2 179//2
f 180//2 120//2 121//2
f 180//2 119//2 120//2
f 180//2 118//2 119//2
f 181//2 118//2 180//2
f 181//2 117//2 118//2
f 181//2 116//2 117//2
f 182//2 116//2 181//2
f 182//2 115//2 116//2
f 182//2 114//2 115//2
f 183//2 114//2 182//2
f 183//2 113//2 114//2
f 184//2 113//2 183//2
f 184//2 112//2 113//2
f 185//2 112//2 184//2
f 185//2 111//2 112//2
f 185//2 110//2 111//2
f 186//2 110//2 185//2
f 186//2 109//2 110//2
f 187//2 109//2 186//2
f 187//2 108//2 109//2
f 188//2 108//2 187//2
f 188//2 107//2 108//2
f 188//2 106//2 107//2
f 189//2 106//2 188//2
f 190//2 106//2 189//2
f 190//2 105//2 106//2
f 190//2 104//2 105//2
f 190//2 103//2 104//2
f 190//2 102//2 103//2
s 1
f 192//3 194//4 193//4 191//3
f 194//4 196//5 195//5 193//4
f 196//5 198//6 197//6 195//5
f 198//6 200//7 199//7 197//6
f 200//7 202//8 201//8 199//7
f 202//8 204//9 203//9 201//8
f 204//9 206//10 205//10 203//9
f 206//10 208//11 207//11 205//10
f 208//11 210//12 209//12 207//11
f 210//12 212//13 211//13 209//12
f 212//13 214//14 213//14 211//13
f 214//14 216//15 215//15 213//14
f 216//15 218//16 217//16 215//15
f 218//16 220//17 219//17 217//16
f 220//17 222//18 221//18 219//17
f 222//18 224//19 223//19 221//18
f 224//19 226//20 225//20 223//19
f 226//20 228//21 227//21 225//20
f 228//21 230//22 229//22 227//21
f 230//22 232//23 231//23 229//22
f 232//23 234//24 233//24 231//23
f 234//24 236//25 235//25 233//24
f 236//25 238//26 237//26 235//25
f 238//26 240//27 239//27 237//26
f 240//27 242//28 241//28 239//27
f 242//28 244//29 243//29 241//28
f 244//29 246//30 245//30 243//29
f 246//30 248//31 247//31 245//30
f 248//31 250//32 249//32 247//31
f 250//32 252//33 251//33 249//32
f 252//33 254//34 253//34 251//33
f 254//34 256//35 255//35 253//34
f 256//35 258//36 257//36 255//35
f 258//36 260//37 259//37 257//36
f 260//37 262//38 261//38 259//37
f 262//38 264//39 263//39 261//38
f 264//39 266//40 265//40 263//39
f 266//40 268//41 267//41 265//40
f 268//41 270//42 269//42 267//41
f 270//42 272//43 271//43 269//42
f 272//43 274//44 273//44 271//43
f 274//44 276//45 275//45 273//44
f 276//45 278//46 277//46 275//45
f 278//46 280//47 279//47 277//46
f 280//47 282//48 281//48 279//47
f 282//48 284//49 283//49 281//48
f 284//49 286//50 285//50 283//49
f 286//50 288//51 287//51 285//50
f 288//51 290//52 289//52 287//51
f 290//52 292//53 291//53 289//52
f 292//53 294//54 293//54 291//53
f 294//54 296//55 295//55 293//54
f 296//55 298//56 297//56 295//55
f 298//56 300//57 299//57 297//56
f 300//57 302//58 301//58 299//57
f 302//58 304//59 303//59 301//58
f 304//59 306//60 305//60 303//59
f 306//60 308//61 307//61 305//60
f 308//61 310//62 309//62 307//61
f 310//62 312//63 311//63 309//62
f 312//63 314//64 313//64 311//63
f 314//64 316//65 315//65 313//64
f 316//65 318//66 317//66 315//65
f 318//66 320//67 319//67 317//66
f 320//67 322//68 321//68 319//67
f 322//68 324//69 323//69 321//68
f 324//69 326//70 325//70 323//69
f 326//70 328//71 327//71 325//70
f 328//71 330//72 329//72 327//71
f 330//72 332//73 331//73 329//72
f 332//73 334//74 333//74 331//73
f 334//74 336//75 335//75 333//74
f 336//75 338//76 337//76 335//75
f 338//76 340//77 339//77 337//76
f 340//77 342//78 341//78 339//77
f 342//78 344//79 343//79 341//78
f 344//79 346//80 345//80 343//79
f 346//80 348//81 347//81 345//80
f 348//81 350//82 349//82 347//81
f 350//82 352//83 351//83 349//82
f 352//83 354//84 353//84 351//83
f 354//84 356//85 355//85 353//84
f 356//85 358//86 357//86 355//85
f 358//86 360//87 359//87 357//86
f 360//87 362//88 361//88 359//87
f 362//88 364//89 363//89 361//88
f 364//89 366//90 365//90 363//89
f 366//90 368//91 367//91 365//90
f 368//91 192//3 191//3 367//91
f 370//92 372//93 371//93 369//92
f 372//93 374//3 373//3 371//93
f 374//3 376//94 375//94 373//3
f 376//94 378//95 377//95 375//94
f 378//95 380//96 379//96 377//95
f 380//96 370//92 369//92 379//96
