# Blender v2.80 (sub 45) OBJ File: ''
# www.blender.org
mtllib date_13.mtl
o Text
v -0.004045 0.100000 0.199029
v 0.189321 0.100000 0.199029
v 0.189321 0.100000 0.032362
v 0.030744 0.100000 0.032362
v 0.030744 0.100000 -0.040453
v 0.189321 0.100000 -0.040453
v 0.189321 0.100000 -0.199838
v -0.004045 0.100000 -0.199838
v -0.004045 0.100000 -0.080906
v -0.099515 0.100000 -0.080906
v -0.099515 0.100000 -0.203883
v -0.024272 0.100000 -0.283172
v 0.209547 0.100000 -0.283172
v 0.284790 0.100000 -0.203883
v 0.284790 0.100000 -0.047735
v 0.240292 0.100000 -0.001618
v 0.284790 0.100000 0.044498
v 0.284790 0.100000 0.204693
v 0.209547 0.100000 0.283172
v -0.024272 0.100000 0.283172
v -0.099515 0.100000 0.204693
v -0.099515 0.100000 0.080906
v -0.004045 0.100000 0.080906
v -0.189321 0.100000 0.283172
v -0.284790 0.100000 0.283172
v -0.284790 0.100000 -0.209547
v -0.215211 0.100000 -0.283172
v -0.189321 0.100000 -0.283172
v -0.004045 -0.100000 0.199029
v 0.189321 -0.100000 0.199029
v 0.189321 -0.100000 0.032362
v 0.030744 -0.100000 0.032362
v 0.030744 -0.100000 -0.040453
v 0.189321 -0.100000 -0.040453
v 0.189321 -0.100000 -0.199838
v -0.004045 -0.100000 -0.199838
v -0.004045 -0.100000 -0.080906
v -0.099515 -0.100000 -0.080906
v -0.099515 -0.100000 -0.203883
v -0.024272 -0.100000 -0.283172
v 0.209547 -0.100000 -0.283172
v 0.284790 -0.100000 -0.203883
v 0.284790 -0.100000 -0.047735
v 0.240292 -0.100000 -0.001618
v 0.284790 -0.100000 0.044498
v 0.284790 -0.100000 0.204693
v 0.209547 -0.100000 0.283172
v -0.024272 -0.100000 0.283172
v -0.099515 -0.100000 0.204693
v -0.099515 -0.100000 0.080906
v -0.004045 -0.100000 0.080906
v -0.189321 -0.100000 0.283172
v -0.284790 -0.100000 0.283172
v -0.284790 -0.100000 -0.209547
v -0.215211 -0.100000 -0.283172
v -0.189321 -0.100000 -0.283172
v -0.189321 -0.100000 0.283172
v -0.189321 0.100000 0.283172
v -0.284790 -0.100000 0.283172
v -0.284790 0.100000 0.283172
v -0.284790 -0.100000 -0.209547
v -0.284790 0.100000 -0.209547
v -0.215211 -0.100000 -0.283172
v -0.215211 0.100000 -0.283172
v -0.189321 -0.100000 -0.283172
v -0.189321 0.100000 -0.283172
v -0.004045 -0.100000 0.199029
v -0.004045 0.100000 0.199029
v 0.189321 -0.100000 0.199029
v 0.189321 0.100000 0.199029
v 0.189321 -0.100000 0.032362
v 0.189321 0.100000 0.032362
v 0.030744 -0.100000 0.032362
v 0.030744 0.100000 0.032362
v 0.030744 -0.100000 -0.040453
v 0.030744 0.100000 -0.040453
v 0.189321 -0.100000 -0.040453
v 0.189321 0.100000 -0.040453
v 0.189321 -0.100000 -0.199838
v 0.189321 0.100000 -0.199838
v -0.004045 -0.100000 -0.199838
v -0.004045 0.100000 -0.199838
v -0.004045 -0.100000 -0.080906
v -0.004045 0.100000 -0.080906
v -0.099515 -0.100000 -0.080906
v -0.099515 0.100000 -0.080906
v -0.099515 -0.100000 -0.203883
v -0.099515 0.100000 -0.203883
v -0.024272 -0.100000 -0.283172
v -0.024272 0.100000 -0.283172
v 0.209547 -0.100000 -0.283172
v 0.209547 0.100000 -0.283172
v 0.284790 -0.100000 -0.203883
v 0.284790 0.100000 -0.203883
v 0.284790 -0.100000 -0.047735
v 0.284790 0.100000 -0.047735
v 0.240292 -0.100000 -0.001618
v 0.240292 0.100000 -0.001618
v 0.284790 -0.100000 0.044498
v 0.284790 0.100000 0.044498
v 0.284790 -0.100000 0.204693
v 0.284790 0.100000 0.204693
v 0.209547 -0.100000 0.283172
v 0.209547 0.100000 0.283172
v -0.024272 -0.100000 0.283172
v -0.024272 0.100000 0.283172
v -0.099515 -0.100000 0.204693
v -0.099515 0.100000 0.204693
v -0.099515 -0.100000 0.080906
v -0.099515 0.100000 0.080906
v -0.004045 -0.100000 0.080906
v -0.004045 0.100000 0.080906
vn 0.0000 1.0000 -0.0000
vn 0.0000 -1.0000 -0.0000
vn 0.7071 0.0000 0.7071
vn -0.7071 0.0000 0.7071
vn -0.9292 0.0000 -0.3696
vn -0.3957 0.0000 -0.9184
vn 0.7071 0.0000 -0.7071
vn -0.7071 0.0000 -0.7071
vn -0.9288 0.0000 -0.3706
vn -0.3947 0.0000 -0.9188
vn 0.3947 0.0000 -0.9188
vn 0.9288 0.0000 -0.3706
vn 0.9272 0.0000 0.3744
vn 1.0000 0.0000 0.0000
vn 0.9272 0.0000 -0.3744
vn 0.9279 0.0000 0.3729
vn 0.3924 0.0000 0.9198
vn -0.3924 0.0000 0.9198
vn -0.9279 0.0000 0.3729
usemtl None
s off
f 11//1 13//1 12//1
f 11//1 14//1 13//1
f 10//1 8//1 11//1
f 8//1 14//1 11//1
f 8//1 7//1 14//1
f 7//1 15//1 14//1
f 10//1 9//1 8//1
f 6//1 15//1 7//1
f 6//1 16//1 15//1
f 4//1 6//1 5//1
f 4//1 16//1 6//1
f 4//1 3//1 16//1
f 3//1 17//1 16//1
f 2//1 17//1 3//1
f 2//1 18//1 17//1
f 21//1 23//1 22//1
f 21//1 1//1 23//1
f 21//1 2//1 1//1
f 21//1 18//1 2//1
f 20//1 18//1 21//1
f 20//1 19//1 18//1
f 26//1 28//1 27//1
f 26//1 24//1 28//1
f 25//1 24//1 26//1
f 41//2 39//2 40//2
f 42//2 39//2 41//2
f 36//2 38//2 39//2
f 42//2 36//2 39//2
f 35//2 36//2 42//2
f 43//2 35//2 42//2
f 37//2 38//2 36//2
f 43//2 34//2 35//2
f 44//2 34//2 43//2
f 34//2 32//2 33//2
f 44//2 32//2 34//2
f 31//2 32//2 44//2
f 45//2 31//2 44//2
f 45//2 30//2 31//2
f 46//2 30//2 45//2
f 51//2 49//2 50//2
f 29//2 49//2 51//2
f 30//2 49//2 29//2
f 46//2 49//2 30//2
f 46//2 48//2 49//2
f 47//2 48//2 46//2
f 56//2 54//2 55//2
f 52//2 54//2 56//2
f 52//2 53//2 54//2
s 1
f 58//3 60//4 59//4 57//3
f 60//4 62//5 61//5 59//4
f 62//5 64//6 63//6 61//5
f 64//6 66//7 65//7 63//6
f 66//7 58//3 57//3 65//7
f 68//7 70//8 69//8 67//7
f 70//8 72//4 71//4 69//8
f 72//4 74//4 73//4 71//4
f 74//4 76//8 75//8 73//4
f 76//8 78//8 77//8 75//8
f 78//8 80//4 79//4 77//8
f 80//4 82//3 81//3 79//4
f 82//3 84//3 83//3 81//3
f 84//3 86//4 85//4 83//3
f 86//4 88//9 87//9 85//4
f 88//9 90//10 89//10 87//9
f 90//10 92//11 91//11 89//10
f 92//11 94//12 93//12 91//11
f 94//12 96//13 95//13 93//12
f 96//13 98//14 97//14 95//13
f 98//14 100//15 99//15 97//14
f 100//15 102//16 101//16 99//15
f 102//16 104//17 103//17 101//16
f 104//17 106//18 105//18 103//17
f 106//18 108//19 107//19 105//18
f 108//19 110//8 109//8 107//19
f 110//8 112//7 111//7 109//8
f 112//7 68//7 67//7 111//7
