# Blender v2.80 (sub 45) OBJ File: 'speaker.blend'
# www.blender.org
o Cube.004_Cube.021
v 0.617647 -0.552919 1.666667
v 0.617647 -3.969837 1.666667
v 0.617647 -0.552919 3.666667
v 0.617647 -3.969837 3.666667
v -0.617647 -0.552919 1.666667
v -0.617647 -3.969837 1.666667
v -0.617647 -0.552919 3.666667
v -0.617647 -3.969837 3.666667
v 0.617647 6.237039 -2.333333
v 0.617647 2.820120 -2.333333
v 0.617647 6.237039 -0.333333
v 0.617647 2.820120 -0.333333
v -0.617647 6.237039 -2.333333
v -0.617647 2.820120 -2.333333
v -0.617647 6.237039 -0.333333
v -0.617647 2.820120 -0.333333
v 0.617647 -0.552919 -2.333333
v 0.617647 -3.969837 -2.333333
v 0.617647 -0.552919 -0.333333
v 0.617647 -3.969837 -0.333333
v -0.617647 -0.552919 -2.333333
v -0.617647 -3.969837 -2.333333
v -0.617647 -0.552919 -0.333333
v -0.617647 -3.969837 -0.333333
v 0.617647 -0.552919 -0.333333
v 0.617647 -3.969837 -0.333333
v 0.617647 -0.552919 1.666667
v 0.617647 -3.969837 1.666667
v -0.617647 -0.552919 -0.333333
v -0.617647 -3.969837 -0.333333
v -0.617647 -0.552919 1.666667
v -0.617647 -3.969837 1.666667
v 0.617647 2.836237 -2.333333
v 0.617647 -0.580682 -2.333333
v 0.617647 2.836237 -0.333333
v 0.617647 -0.580682 -0.333333
v -0.617647 2.836237 -2.333333
v -0.617647 -0.580682 -2.333333
v -0.617647 2.836237 -0.333333
v -0.617647 -0.580682 -0.333333
v 0.617647 2.836237 -0.333333
v 0.617647 -0.580682 -0.333333
v 0.617647 2.836237 1.666667
v 0.617647 -0.580682 1.666667
v -0.617647 2.836237 -0.333333
v -0.617647 -0.580682 -0.333333
v -0.617647 2.836237 1.666667
v -0.617647 -0.580682 1.666667
vt 0.190909 1.000000
vt 0.381818 0.630787
vt 0.381818 1.000000
vt 0.809091 0.000000
vt 1.000000 0.630786
vt 0.809091 0.630786
vt 0.000000 0.000000
vt 0.309091 0.630786
vt 0.000000 0.630786
vt 0.190909 0.630787
vt 0.000000 1.000000
vt 0.000000 0.630786
vt 0.309091 0.000000
vt 0.618182 0.630786
vt 0.309091 0.630786
vt 0.618182 0.000000
vt 0.809091 0.630786
vt 0.618182 0.630786
vt 0.190909 1.000000
vt 0.381818 0.630787
vt 0.381818 1.000000
vt 0.809091 0.000000
vt 1.000000 0.630786
vt 0.809091 0.630786
vt 0.000000 0.000000
vt 0.309091 0.630786
vt 0.000000 0.630786
vt 0.190909 0.630787
vt 0.000000 1.000000
vt 0.000000 0.630786
vt 0.309091 0.000000
vt 0.618182 0.630786
vt 0.309091 0.630786
vt 0.618182 0.000000
vt 0.809091 0.630786
vt 0.618182 0.630786
vt 0.190909 1.000000
vt 0.381818 0.630787
vt 0.381818 1.000000
vt 0.809091 0.000000
vt 1.000000 0.630786
vt 0.809091 0.630786
vt 0.000000 0.000000
vt 0.309091 0.630786
vt 0.000000 0.630786
vt 0.190909 0.630787
vt 0.000000 1.000000
vt 0.000000 0.630786
vt 0.309091 0.000000
vt 0.618182 0.630786
vt 0.309091 0.630786
vt 0.618182 0.000000
vt 0.809091 0.630786
vt 0.618182 0.630786
vt 0.190909 1.000000
vt 0.381818 0.630787
vt 0.381818 1.000000
vt 0.809091 0.000000
vt 1.000000 0.630786
vt 0.809091 0.630786
vt 0.000000 0.000000
vt 0.309091 0.630786
vt 0.000000 0.630786
vt 0.190909 0.630787
vt 0.000000 1.000000
vt 0.000000 0.630786
vt 0.309091 0.000000
vt 0.618182 0.630786
vt 0.309091 0.630786
vt 0.618182 0.000000
vt 0.809091 0.630786
vt 0.618182 0.630786
vt 0.190909 1.000000
vt 0.381818 0.630787
vt 0.381818 1.000000
vt 0.809091 0.000000
vt 1.000000 0.630786
vt 0.809091 0.630786
vt 0.000000 0.000000
vt 0.309091 0.630786
vt 0.000000 0.630786
vt 0.190909 0.630787
vt 0.000000 1.000000
vt 0.000000 0.630786
vt 0.309091 0.000000
vt 0.618182 0.630786
vt 0.309091 0.630786
vt 0.618182 0.000000
vt 0.809091 0.630786
vt 0.618182 0.630786
vt 0.190909 1.000000
vt 0.381818 0.630787
vt 0.381818 1.000000
vt 0.809091 0.000000
vt 1.000000 0.630786
vt 0.809091 0.630786
vt 0.000000 0.000000
vt 0.309091 0.630786
vt 0.000000 0.630786
vt 0.190909 0.630787
vt 0.000000 1.000000
vt 0.000000 0.630786
vt 0.309091 0.000000
vt 0.618182 0.630786
vt 0.309091 0.630786
vt 0.618182 0.000000
vt 0.809091 0.630786
vt 0.618182 0.630786
vt 0.190909 0.630786
vt 1.000000 0.000000
vt 0.309091 0.000000
vt 0.190909 1.000000
vt 0.618182 0.000000
vt 0.809091 0.000000
vt 0.190909 0.630786
vt 1.000000 0.000000
vt 0.309091 0.000000
vt 0.190909 1.000000
vt 0.618182 0.000000
vt 0.809091 0.000000
vt 0.190909 0.630786
vt 1.000000 0.000000
vt 0.309091 0.000000
vt 0.190909 1.000000
vt 0.618182 0.000000
vt 0.809091 0.000000
vt 0.190909 0.630786
vt 1.000000 0.000000
vt 0.309091 0.000000
vt 0.190909 1.000000
vt 0.618182 0.000000
vt 0.809091 0.000000
vt 0.190909 0.630786
vt 1.000000 0.000000
vt 0.309091 0.000000
vt 0.190909 1.000000
vt 0.618182 0.000000
vt 0.809091 0.000000
vt 0.190909 0.630786
vt 1.000000 0.000000
vt 0.309091 0.000000
vt 0.190909 1.000000
vt 0.618182 0.000000
vt 0.809091 0.000000
vn 0.0000 1.0000 0.0000
vn 0.0000 0.0000 1.0000
vn -1.0000 0.0000 0.0000
vn 0.0000 -1.0000 0.0000
vn 1.0000 0.0000 0.0000
vn 0.0000 0.0000 -1.0000
s off
f 5/1/1 3/2/1 1/3/1
f 3/4/2 8/5/2 4/6/2
f 7/7/3 6/8/3 8/9/3
f 2/10/4 8/11/4 6/12/4
f 1/13/5 4/14/5 2/15/5
f 5/16/6 2/17/6 6/18/6
f 13/19/1 11/20/1 9/21/1
f 11/22/2 16/23/2 12/24/2
f 15/25/3 14/26/3 16/27/3
f 10/28/4 16/29/4 14/30/4
f 9/31/5 12/32/5 10/33/5
f 13/34/6 10/35/6 14/36/6
f 21/37/1 19/38/1 17/39/1
f 19/40/2 24/41/2 20/42/2
f 23/43/3 22/44/3 24/45/3
f 18/46/4 24/47/4 22/48/4
f 17/49/5 20/50/5 18/51/5
f 21/52/6 18/53/6 22/54/6
f 29/55/1 27/56/1 25/57/1
f 27/58/2 32/59/2 28/60/2
f 31/61/3 30/62/3 32/63/3
f 26/64/4 32/65/4 30/66/4
f 25/67/5 28/68/5 26/69/5
f 29/70/6 26/71/6 30/72/6
f 37/73/1 35/74/1 33/75/1
f 35/76/2 40/77/2 36/78/2
f 39/79/3 38/80/3 40/81/3
f 34/82/4 40/83/4 38/84/4
f 33/85/5 36/86/5 34/87/5
f 37/88/6 34/89/6 38/90/6
f 45/91/1 43/92/1 41/93/1
f 43/94/2 48/95/2 44/96/2
f 47/97/3 46/98/3 48/99/3
f 42/100/4 48/101/4 46/102/4
f 41/103/5 44/104/5 42/105/5
f 45/106/6 42/107/6 46/108/6
f 5/1/1 7/109/1 3/2/1
f 3/4/2 7/110/2 8/5/2
f 7/7/3 5/111/3 6/8/3
f 2/10/4 4/112/4 8/11/4
f 1/13/5 3/113/5 4/14/5
f 5/16/6 1/114/6 2/17/6
f 13/19/1 15/115/1 11/20/1
f 11/22/2 15/116/2 16/23/2
f 15/25/3 13/117/3 14/26/3
f 10/28/4 12/118/4 16/29/4
f 9/31/5 11/119/5 12/32/5
f 13/34/6 9/120/6 10/35/6
f 21/37/1 23/121/1 19/38/1
f 19/40/2 23/122/2 24/41/2
f 23/43/3 21/123/3 22/44/3
f 18/46/4 20/124/4 24/47/4
f 17/49/5 19/125/5 20/50/5
f 21/52/6 17/126/6 18/53/6
f 29/55/1 31/127/1 27/56/1
f 27/58/2 31/128/2 32/59/2
f 31/61/3 29/129/3 30/62/3
f 26/64/4 28/130/4 32/65/4
f 25/67/5 27/131/5 28/68/5
f 29/70/6 25/132/6 26/71/6
f 37/73/1 39/133/1 35/74/1
f 35/76/2 39/134/2 40/77/2
f 39/79/3 37/135/3 38/80/3
f 34/82/4 36/136/4 40/83/4
f 33/85/5 35/137/5 36/86/5
f 37/88/6 33/138/6 34/89/6
f 45/91/1 47/139/1 43/92/1
f 43/94/2 47/140/2 48/95/2
f 47/97/3 45/141/3 46/98/3
f 42/100/4 44/142/4 48/101/4
f 41/103/5 43/143/5 44/104/5
f 45/106/6 41/144/6 42/107/6
