# Blender v2.80 (sub 45) OBJ File: 'tony.blend'
# www.blender.org
mtllib tonys.mtl
o Cube
v 2.502559 0.050043 -1.124339
v 2.502559 -0.168368 -1.124339
v 2.502559 0.050043 1.124339
v 2.502559 -0.168368 1.124339
v -2.502559 0.050043 -1.124339
v -2.502559 -0.168368 -1.124339
v -2.502559 0.050043 1.124339
v -2.502559 -0.168368 1.124339
v -2.502559 -0.168368 -1.015218
v -2.502559 -0.168368 1.015218
v 2.502559 0.286694 -1.015218
v 2.502559 0.286694 1.015218
v -2.502559 0.286694 1.015218
v -2.502559 0.286694 -1.015218
v 2.502559 -0.168368 1.015218
v 2.502559 -0.168368 -1.015218
vt 0.837222 0.000000
vt 0.837222 1.000000
vt 0.792329 1.000000
vt 0.792329 0.000000
vt 0.754703 0.000000
vt 0.754704 1.000000
vt 0.377352 1.000000
vt 0.377351 0.000000
vt 0.396597 0.000000
vt 0.396597 1.000000
vt 0.919741 1.000000
vt 0.882115 1.000000
vt 0.882115 0.000000
vt 0.919741 0.000000
vt 0.000000 1.000000
vt 0.000000 0.000000
vt 0.019245 0.000000
vt 0.019246 1.000000
vt 0.837222 1.000000
vt 0.837222 0.000000
vt 0.754703 0.000000
vt 0.754703 1.000000
vt 0.396597 1.000000
vt 0.396597 0.000000
vt 1.000000 0.021802
vt 0.919741 0.021802
vt 0.961479 0.000000
vt 1.000000 0.000000
vt 1.000000 0.471077
vt 0.919741 0.471077
vt 0.961479 0.449276
vt 1.000000 0.449276
vt 1.000000 0.898551
vt 0.961479 0.898551
vt 0.919741 0.876749
vt 1.000000 0.876749
vt 1.000000 0.449276
vt 0.961479 0.449276
vt 0.919741 0.427474
vt 1.000000 0.427474
vn 0.0000 0.4187 0.9081
vn 0.0000 0.0000 1.0000
vn 0.0000 -1.0000 0.0000
vn 0.0000 0.0000 -1.0000
vn 0.0000 0.4187 -0.9081
vn 0.0000 1.0000 0.0000
vn -1.0000 0.0000 0.0000
vn 1.0000 0.0000 0.0000
usemtl Material
s off
f 12/1/1 13/2/1 7/3/1 3/4/1
f 4/5/2 3/4/2 7/3/2 8/6/2
f 10/7/3 15/8/3 4/9/3 8/10/3
f 6/11/4 5/12/4 1/13/4 2/14/4
f 6/15/3 2/16/3 16/17/3 9/18/3
f 9/18/3 16/17/3 15/8/3 10/7/3
f 1/13/5 5/12/5 14/19/5 11/20/5
f 11/21/6 14/22/6 13/23/6 12/24/6
usemtl Material.001
f 9/25/7 14/26/7 5/27/7 6/28/7
f 15/29/8 12/30/8 3/31/8 4/32/8
f 2/33/8 1/34/8 11/35/8 16/36/8
f 16/36/8 11/35/8 12/30/8 15/29/8
f 8/37/7 7/38/7 13/39/7 10/40/7
f 10/40/7 13/39/7 14/26/7 9/25/7
