<?xml version="1.0" encoding="utf-8"?>
<!-- Generator: Adobe Illustrator 19.0.0, SVG Export Plug-In . SVG Version: 6.00 Build 0)  -->
<svg version="1.1" id="Calque_1" xmlns="http://www.w3.org/2000/svg" xmlns:xlink="http://www.w3.org/1999/xlink" x="0px" y="0px"
	 viewBox="0 0 2000 1333" style="enable-background:new 0 0 2000 1333;" xml:space="preserve">
<style type="text/css">
	.st0{fill:none;stroke:#000000;stroke-miterlimit:10;}
</style>
<g>
	<path class="st0" d="M381.6,398.8c-5.5-1.4-9.9-0.9-14.2-0.3c-4.3,0.6-8.7,0.6-13,0.3c-3.6-0.3-6.9-1.8-7-5.8
		c-0.1-3.9,3.2-5,6.7-5.2c1.8-0.1,3.5-0.6,6.7-1.2c-4.3-2.2-6.8-4.6-5.3-8.4c1.5-3.7,5.1-4.5,8.6-5.1c7.2-1.1,14.5-2.1,21.7-3.2
		c1.7-0.3,3.7,0,4.8-2.4c-2.9-1-5.7-0.4-8.4-0.5c-2-0.1-4,0-5.9-1c-1.9-1-3.3-2.3-3.2-4.6c0-2.2,1.4-3.3,3.2-4.1
		c4-1.9,8.5-2,12.7-2.1c14-0.3,27.9-0.2,41.9-0.8c8.1-0.3,16.3,0.5,24.3,2.1c8.2,1.6,16.2-0.8,24.4-0.9c0.9,0,2-0.6,2.6-1.3
		c5.2-5.2,11.4-5.1,17.7-3.1c10.3,3.3,20.4,1.3,30.6-0.5c8.4-1.5,16.7-3.1,25-4.8c11.7-2.4,23.4-5,35.2-7.4
		c19.4-3.9,38.1-11.1,57.7-14c8.1-1.2,16.3-2.9,24.7-2.8c0.3,0,0.7,0.1,1,0c6.1-3.5,13-2.9,19.5-4.1c7.7-1.4,15.1-2.4,23.1-1.6
		c6.6,0.7,13.8,2.4,20.3-2c2.8-1.9,6.1-0.7,9.2-0.3c9.1,1.4,18.1,1.7,26.6-3c0.3-0.2,0.6-0.4,0.9-0.4c11,1.1,18.3-6.8,27.2-11
		c3.4-1.6,6.8-2.4,10.5-2.8c9.5-1,18.1-5.4,27.6-6.7c3.4-0.5,6.8-1.7,10.2-2.3c5.5-1,10.3-3,14.8-6.6c6.7-5.4,14.5-8.3,23.3-4.3
		c2.2,1,4.5,1,6.7-0.2c1.5-0.7,3.1-1.5,4.7-1.5c4.4,0.1,8.2-0.4,9.7-5.5c0.4-1.4,2-2.3,3.6-2.5c5-0.6,6.9-2.8,6.5-8.3
		c-0.6-9.6,0-19.2-2.3-28.7c-1.2-4.8-3.1-9.1-5.3-13.4c-0.8-1.5-2.1-2.5-3.6-3.4c-13.3-7.5-21.1-18.3-21.1-34c0-3.8,1.2-6.9,3.7-9.5
		c1.9-1.9,2.1-3.8,1.1-6.3c-5-12.3-3.5-24.9-0.7-37.3c2.2-9.8,7.4-18.6,12.1-27.3c5.3-9.8,14.5-16.3,23.6-22.6
		c8.4-5.9,17.9-7.4,27.9-7.4c5.5,0,10.1,1.4,14.3,4.7c2.6,2.1,5.5,3.8,7.9,6.1c4.5,4,9.5,5.4,15.5,5.5c7.6,0.1,14.1,3.2,17.7,10.7
		c4,8.3,7.7,16.7,9.2,25.8c1.3,8-1,15.8-2.3,23.7c-0.6,3.8-1.4,7.5-1.9,11.3c-0.3,2.1-0.3,4.5,1.4,6.2c6.7,6.5,4.8,14.5,3.9,22.1
		c-1.2,9.3-6.3,16.7-11.5,24.4c-4.4,6.6-9.5,13.9-9.1,23.1c0.3,6.6-2.2,13-0.2,19.8c1.6,5.5,4.3,8.5,10,8.6c4.3,0.1,7.4,1.5,9.3,5.4
		c1.4,2.9,3.9,2.9,6.4,2.3c4.7-1.2,9.1-0.1,13,2c3.7,2,7.5,3.1,11.5,2.3c5.9-1.2,11,0.4,16.2,2.9c7.8,3.9,16,6.1,24.9,6.5
		c8.3,0.4,16.2,3.8,24,6.6c4.9,1.8,9.8,3.3,14.8,4.4c2.6,0.6,5.3,0.9,7.3,2.9c0.2,0.2,0.6,0.6,0.8,0.5c8.9-1.8,15.6,7.2,25.1,4.8
		c5.1-1.3,10.8,1.2,16.1,2.5c1.5,0.4,3,1.5,4.3,1.2c6.5-1.6,12.7-2.1,18.4,2.3c0.4,0.3,1.4,0,1.9-0.3c6-3.7,11.7-2.1,17.6,0.6
		c3.7,1.7,7.9,2.7,12.1,0.6c1.7-0.9,3.7-0.6,5.3,0.4c9,5.8,19.5,6.7,29.6,7.7c12.8,1.2,25.5,2.5,37.9,5.8
		c13.8,3.7,28.1,5.3,42.2,7.9c18,3.3,35.9,7.1,54.1,9c2.3,0.2,4.6,0.5,7,0.5c12.8,0.1,25.6,0.9,38.4,1.6c9.4,0.6,19.2-1.3,28.7-3.4
		c11.7-2.6,22.5-8.3,34.4-10.2c4.7-0.7,9.3-0.9,13.9-0.9c2.3,0,4.5,0.8,4.9,3.4c0.5,2.9-1.6,4.3-3.9,5c-4.6,1.5-9.4,2.2-14.2,2.6
		c-5.4,0.4-10.1,2.4-15,5.9c3,1.6,5.3,1,7.5,0.6c13.4-2.5,27-3.2,40.6-4.5c1.8-0.2,3.7-0.1,5.4,0.5c2.4,0.8,4.5,2.6,4.6,5.4
		c0.1,2.8-2,4.1-4.3,4.8c-6.3,1.9-12.8,2-19.2,2.4c-2.1,0.1-4.3-0.6-7.1,1.9c9.2-0.2,17.4,0.4,25.6-0.4c3.1-0.3,6.3-0.4,9.5-0.5
		c3.5-0.1,6.5,1.2,6.7,5.1c0.2,3.6-2.4,5.1-5.6,5.9c-7.8,2-15.6,3.5-23.7,3c-1.3-0.1-2.7-0.3-4.2,0.8c1.5,1.5,3.4,1.1,5.1,1.1
		c5.5-0.3,11,0.6,16.4,1.2c3.3,0.4,7.8,0.6,7.9,5.2c0.1,4.8-4.3,5.8-7.8,6.1c-8.4,0.8-17,1.4-25.4,1.2c-12.8-0.3-25.6-1-38.2,2.3
		c-5.1,1.3-8.6,4.2-10.6,9c-1.4,3.3-0.3,6.1,2.3,8.5c4.1,3.8,9.5,5.4,14.2,8.2c4.2,2.5,7.8,5.6,10.4,9.8c1.7,2.7,2.1,5.7-0.3,8.3
		c-2.4,2.6-5.2,2.3-8.2,0.8c-5.7-2.6-10.5-6.3-15.2-10.3c-2.5-2.2-4.9-5.2-8.1-5.7c-11.6-1.7-18.8-10.1-27.2-16.7
		c-4.2-3.3-7.8-7.1-10.2-12.1c-1.5-3.1-4.6-4.7-7.6-6.2c-9.7-5-20.3-5.2-30.7-5.5c-33.8-1.2-67.6,0.8-101.4,1.2
		c-14.5,0.2-29.2,0.5-43.7,0.8c-9.8,0.2-20.6,1.9-30.3-2.9c-1.1-0.6-2.3-0.3-3.4,0.1c-1.3,0.5-2.7,0.9-3.9,0.3
		c-9.7-4.7-19.7-1.2-29.6-1.5c-2.9-0.1-4.6,2-5.6,4.3c-3.2,7.2-9.3,8.7-16.3,9.6c-12,1.5-24.3,2.5-35.6,6.8
		c-8.3,3.2-15.3,9.2-17,19.2c-2.8,15.7-4.3,31.6-6.5,47.4c-2,14.1-4.8,28.1-7.3,42.2c-1.2,6.5-1.8,13.1-2.9,19.7
		c-2.3,14.2-5.5,28-10.3,41.5c-2.3,6.4-4.4,13-6.9,19.2c-4.4,10.9-2.5,21.6-0.8,32.3c2.6,16.8,8.5,32.8,14.7,48.6
		c2.1,5.3,3,10.9,3.9,16.5c0.8,4.9,1.6,9.8,3.1,14.6c3.3,10.7,3.8,21.7,3.2,33c-0.5,10.1-1,20.3,0.4,30.4c0.4,2.8,0.4,5.7,0.2,8.5
		c-1.1,22-0.4,43.8,2.7,65.7c1.4,9.7,1.2,19.6,2.3,29.3c0.8,7.3-0.1,14.6-1.4,21.9c-0.7,4-0.9,8,0,11.9c2.6,12,4.4,24.1,5.6,36.4
		c0.1,1.1,0.5,2.4,1.2,3.2c6.6,7,7.9,15.9,8.7,24.9c0.1,1.2,0,2.6,0.6,3.4c4.4,5.6,3.4,12.7,5,19c4.8,19,7.5,38.4,9.7,57.9
		c1,9.4,3.5,18.6,4.7,28c1.7,13.2,2.6,26.6,1.9,39.9c-0.6,11.3,1.6,21.7,6.8,31.6c3.5,6.8,2.8,14.2,3.2,21.4
		c0.2,3.1-1.6,5.9-4.7,7.7c-3.6,2-4.2,5.4-1.4,8.3c9.1,9.2,14.4,20.6,19.1,32.4c2.8,7,6.5,13.3,11.5,19.1
		c6.8,7.8,12.8,16.1,19.1,24.2c1.7,2.1,4.4,2.8,6,5.1c7.5,10.6,9.5,22.6,8.4,35.2c-0.5,5.9-7.4,11.6-15.5,12
		c-19.1,1-38.4,2.2-55.7-8.7c-6.2-3.9-10.7-9-11.6-16.5c-0.7-6-3.1-8.3-9.1-9.4c-12.8-2.5-23.1-9.1-31.4-19c-1.2-1.4-2.1-3-2.3-4.9
		c-0.7-10.3,0.2-20.4,6.6-29c1.7-2.3,2.4-4.7,2.3-7.4c-0.2-5.4,0.7-10.6,2.1-15.8c1.5-5.3,1-10.6-0.3-15.8c-0.8-3.2-3.5-4.4-6-5.6
		c-5.3-2.4-7.9-6-8.1-12c-0.1-4.6-1.4-9.2-2.1-13.8c-0.1-0.8-0.4-1.7-0.3-2.5c3.8-15.5-4.5-28.8-7.4-43.1
		c-3.6-18.1-9.9-35.6-13.4-53.7c-3-15.2-5.3-30.4-8.6-45.5c-1.7-7.7-6.1-14.8-5.1-23.1c0.1-0.7-0.3-1.6-0.7-2.3
		c-11.6-20.4-17.5-43-23.8-65.3c-8-28.5-16.9-56.7-25.6-85c-3.8-12.4-9.2-24.3-13.6-36.5c-2.9-7.9-4.5-16-7-23.9
		c-1.6-5.1-3.3-10.1-5.7-14.9c-1-1.9-2.1-4.2-4.6-4.1c-2.4,0.1-2.6,2.8-3.2,4.6c-2.4,6.4-4.4,12.9-6.9,19.3
		c-7.2,18.4-14.4,36.9-22.1,55.1c-3.7,8.8-9.6,16.7-10.9,26.6c-1.2,9.4-2.1,18.8-3.8,28.1c-1.9,10.6-4.7,21.1-7,31.6
		c-2.7,12.4-5.8,24.6-12,35.8c-1.1,2.1-1.2,4.8-1.4,7.3c-0.4,3.9-1.7,7.5-4,10.6c-2.4,3.3-3.6,6.7-3.4,10.7c0,0.3,0.1,0.7,0,1
		c-3.7,6.5-2.3,14.1-4.8,20.8c-1.8,4.8-1.2,9.9-2.1,14.8c-2.4,13.4-3.5,27-6.3,40.4c-2,10.1-2.3,20.4-3.8,30.6
		c-0.9,6.2-2.5,12.4-3.9,18.5c-0.9,3.9-1.6,7.9-1.1,11.9c1.6,13-4.3,24.8-5.4,37.4c-0.3,4-3.8,6.6-7.6,7.9c-2.9,1-4.4,2.8-4.8,5.7
		c-0.2,1.9-0.8,3.6-2.2,4.9c-2.3,2.2-3.6,4.4-1.1,7.3c0.5,0.5,0.6,1.6,0.4,2.4c-2.5,9.5,0.7,18.4,2.9,27.4c0.5,2,1.3,4.2,0.5,5.9
		c-2.8,5.9,0.3,11,1.7,16.3c5.8,22.4-4.4,34.7-23.5,43c-2.1,0.9-4.3,1.2-3.3,4.2c3.8,11.4-2.5,18.9-10.2,25.4
		c-5.6,4.7-12.7,6-19.9,7.3c-11.5,2-22.6,0.5-33.6-2.1c-10.7-2.5-14.7-9-14.4-21.4c0.1-4.8,0-9.7,0.5-14.5
		c0.9-8.8,3.4-16.5,11.4-22.1c5.4-3.8,8.2-10.3,12.1-15.8c4.3-6.1,6.8-13.2,11.3-19.2c3.1-4.1,3.8-9.2,4.2-14.2
		c0.3-3.6,1.9-6.2,5.2-7.9c6.1-3.1,10.6-11.6,9.5-18.2c-0.6-3.8-1.1-7.5,0.6-11.3c1-2.2,0.5-4.4-1.4-5.9
		c-12.2-9.1-10.3-21.6-7.2-33.7c3.1-12.7,5.9-25.3,5.3-38.4c-0.6-15.4,1.2-30.6,3.2-45.8c1.5-11.5,2.2-23.2,3.9-34.7
		c0.9-5.7,1.6-11.1,0-16.7c-0.3-1.1-0.3-2.5,0.2-3.4c3.7-6.7,5-14.4,8.6-21.1c0.6-1.2,1.7-2.3,1.7-3.5c0.2-8.8,1.4-17.5,2.1-26.3
		c0.3-4.1,0.1-8.2,1.2-12.2c3.5-13.8,4.3-27.9,6-41.9c2-17,3.9-34.2,2.9-51.3c-1.3-21.7,1.2-43.3,0.2-64.9
		c-0.4-7.9,2.6-15.3,2.2-23.3c-0.9-18.3,1.5-36.3,5.3-54.3c3.4-16.1,7.5-32,10.8-48.2c1.8-8.6,4.8-17.1,7.7-25.5
		c0.8-2.3,1.1-4.5,1-6.9c-0.5-7.4,0.8-14.6,1.1-21.9c0.2-6.1,4.7-10.5,6.8-15.9c1.1-2.7,2.2-4.9,1.5-8c-1.4-6.4-0.3-12.3,4.2-17.2
		c3.1-3.4,2.8-6.8,1.1-10.6c-2.2-4.9-3.9-9.9-6-14.8c-4-8.9-3.7-18.5-5.5-27.8c-2.9-14.7-6-29.2-11.1-43.4
		c-4-10.9-6.9-22.2-12.8-32.4c-3.4-5.9-7.4-9.7-15-9.4c-6.1,0.3-12.5-1.2-17.9-3.9c-9.3-4.5-19.3-4.7-29-6.8
		c-5.1-1.1-10.1-1.8-14.9-4c-6.1-2.8-12.9-3.5-19-7.2c-3.4-2.1-9-1.1-13.6-0.7c-4.8,0.5-10.1-1-14.1,3.1c-0.3,0.3-1,0.5-1.4,0.3
		c-11.6-3.4-22.4,3.1-33.6,2.9c-10.8-0.2-21.6,1.3-32.3,0.1c-6.5-0.8-12.9-1.1-19.3,0.6c-0.5,0.1-1,0.3-1.5,0.3
		c-15.8,0-31.5,1.7-47.4,0.9c-20.8-1-41.6-1.4-62.4,0.6c-1.7,0.2-3.1,0.9-4.1,2.4c-3.5,5.1-9.5,7.5-15.3,5.5
		c-4.5-1.6-8.2-0.3-9.7,3.5c-3.9,9.7-13.1,13.2-20.1,19.3c-8.6,7.5-20,9.9-28.6,17.1c-4.3,3.7-9,6.8-13.5,10.3
		c-2.5,1.9-5.2,2.6-7.8,0.5c-2.7-2.2-3-5.3-1.4-8.2c2.7-5.2,6.4-9.7,11.7-12.7c3.5-2,7-3.8,10.3-6c2.6-1.7,6.2-3.8,5-7.3
		c-1.2-3.5-4.2-7.1-8.2-7.3c-8.9-0.4-17.9-1.2-26.9,0.8c-12,2.7-24,5.5-36.3,6.7c-2.3,0.2-4.7,0.1-6.9-0.3c-1.9-0.3-4.2-1.1-4.4-3.4
		c-0.2-2.5,1.6-4,3.7-4.8c3.6-1.3,7.2-2.5,10.9-3.4C374.4,402.1,377.6,400.9,381.6,398.8z"/>
</g>
</svg>
