<?xml version="1.0" encoding="utf-8"?>
<!-- Generator: Adobe Illustrator 19.0.0, SVG Export Plug-In . SVG Version: 6.00 Build 0)  -->
<svg version="1.1" id="Calque_1" xmlns="http://www.w3.org/2000/svg" xmlns:xlink="http://www.w3.org/1999/xlink" x="0px" y="0px"
	 viewBox="0 0 960 560" style="enable-background:new 0 0 960 560;" xml:space="preserve">
<style type="text/css">
	.st0{fill:none;stroke:#000000;stroke-miterlimit:10;}
</style>
<g id="XMLID_1_">
	<path id="XMLID_11_" class="st0" d="M283.1,194.9c-2.3-1-4.5,0-6.7-0.2c-0.8-0.1-1.6,0-2.4-0.1c-1-0.1-1.7-0.6-1.8-1.6
		c-0.1-1.1,0.8-1.5,1.7-1.7c1.2-0.2,2.5-0.4,4.4-0.7c-1.2-0.2-1.8-0.2-2.3-0.3c-0.8-0.2-1.2-0.8-1.2-1.6c0-1.1,0.7-1.6,1.7-1.7
		c4.2-0.7,8.3-1.4,12.5-2.3c-2.1,0-4.2,0-6.2,0c-1.1,0-2.5-0.2-2.4-1.7c0-1.3,1.3-1.5,2.3-1.6c2.1-0.1,4.2-0.2,6.2-0.1
		c6.2,0.1,12.4-0.6,18.7,0.3c2.7,0.4,5.9,0.5,8.5-1.6c0.8-0.6,1.9-0.8,2.8-0.4c5,1.7,9.8,0.4,14.7-0.4c10.2-1.8,20.2-4.1,30.2-6.8
		c2.8-0.8,5.7-0.9,8.5-1.3c4.4-0.7,8.7-1.5,13-2.3c1-0.2,2-0.1,3.1,0c2.4,0.1,4.8,0.6,7.1-0.5c0.3-0.2,0.8-0.3,1.2-0.2
		c4.2,0.8,8.2-0.2,12.2-1c1-0.2,2-0.3,2.7-0.9c3.9-3.3,8.8-3.6,13.4-4.8c2.4-0.7,4.8-1.1,7.2-1.7c0.1,0,0.2,0,0.2-0.1
		c4.6-3.9,10.3-3.2,15.8-3.8c1.9-0.2,4.8-4.2,4.8-6.1c0-3.9,0-7.7-1.8-11.3c-0.5-1.1-1.3-1.9-2.4-2.6c-3.8-2.4-6.9-6-5.6-10.4
		c1-3.4,0.1-6.4,0.2-9.6c0.2-10.8,4.5-19.4,14.7-24.1c3.8-1.8,8-1.9,11.5,1.1c2.2,1.9,4.5,3.5,7.7,3.3c2-0.1,3.6,1.2,4.5,3.1
		c2.4,4.7,3.8,9.4,2.3,14.8c-0.8,2.8-0.7,5.4,0.6,8.5c1.7,4,0.1,8.2-2.7,11.6c-3.2,4-4.3,8.6-3.8,13.7c0.2,2.2,1.4,3.7,3.8,3.8
		c0.3,0,0.8,0,0.9,0.2c2.3,3,6.3,1.3,9,3.4c0.4,0.3,1.3,0.5,1.8,0.3c2.4-0.7,4.4,0.1,6.4,1.1c1.9,0.9,3.9,1.4,6,1.6
		c5.6,0.7,10.8,2.8,16,4.7c1.5,0.6,3.2,0.9,4.6,1c3.9,0.3,7.8,1.7,11.8,1.4c0.9-0.1,1.7,0,2.6,0.4c0.5,0.2,1.2,0.6,1.6,0.4
		c2.5-1.3,4.8-0.1,7.1,0.6c0.8,0.2,1.6,0.3,2.3-0.1c0.5-0.3,1.1-0.4,1.6-0.1c4.1,2.5,8.7,2.2,13.1,3c7.7,1.3,15.4,2.7,23.1,4.3
		c8.6,1.8,17.2,2.6,25.9,3.1c7.1,0.4,13.8-0.5,20.4-3c2.4-0.9,5-1.6,7.7-1.4c0.9,0.1,1.9,0.2,2.1,1.2c0.2,1.2-0.9,1.4-1.8,1.6
		c-1.2,0.3-2.4,0.5-3.5,0.6c-1.8,0.2-3.3,0.8-5.1,1.8c1.4,0.7,2.4,0.5,3.3,0.3c3.8-0.9,7.6-0.8,11.4-1.2c0.5-0.1,1,0,1.4,0
		c1,0.1,2,0.2,2.1,1.5c0.1,1.3-0.9,1.8-2,1.9c-2.3,0.3-4.7,0.5-7.1,1c1.7,0.6,3.5,0.4,5.3,0.3c1.7-0.1,3.3-0.2,5-0.3
		c1,0,2,0.1,2.2,1.4c0.1,1.2-0.7,1.7-1.7,2c-3.2,0.7-6.5,1.1-9.8,1c-0.7,0-1.4,0-2.2,0.3c2.1,0.2,4.3,0.4,6.4,0.5
		c1.4,0.1,2.7,0,4.1,0.2c0.9,0.1,2.1,0.4,2,1.6c0,1.2-1,1.5-2,1.6c-3.2,0.6-6.5,0.5-9.8,0.5c-3.3,0-6.6-0.2-9.8,0.5
		c-1,0.2-1.9,0.5-2.7,1c-2.4,1.6-2.3,4.1,0.1,5.6c1.5,0.9,3.1,1.7,4.5,2.7c1,0.6,1.9,1.5,2.4,2.6c0.3,0.8,0.4,1.6-0.2,2.3
		c-0.6,0.7-1.4,0.7-2.2,0.5c-0.2-0.1-0.5-0.1-0.7-0.3c-5.5-4.3-13-6.2-17.2-11.9c-3.8-5.2-8.5-5.8-14-5.9c-15-0.3-30,0.9-45.1,0.5
		c-4.7-0.1-9.4-0.3-14.1-1.4c-2.5-0.6-5.6-0.4-8.3,0.4c-0.3,0.1-0.7,0.2-0.8,0.4c-2.6,4.6-7.5,3.5-11.5,4.4
		c-2.6,0.6-5.3,0.8-7.7,2.5c-3.8,2.6-3.8,6.6-4.3,10.5c-1.8,13.4-3.4,26.8-6.8,39.9c-0.4,1.5-0.9,3.1-1.6,4.5
		c-2.6,5-2.5,10.3-1.3,15.6c0.9,4.2,2.4,8.3,3.7,12.4c2.3,7.5,4.4,15,3.7,23c-0.3,3.3,0.4,6.8,0.2,10c-0.6,10.1,0.8,20.1,1.6,30.1
		c0.2,2.9,0.2,5.8-0.4,8.6c-0.3,1.4-0.2,2.7,0.1,4.1c0.9,3.3,1.2,6.8,1.7,10.2c0.1,0.9,0.4,1.7,1,2.4c1,1.2,1.4,2.7,1.8,4.2
		c3.4,13.2,5.1,26.8,7.1,40.3c0.6,4.1,0.2,8.3,0.4,12.5c0.1,1.7,0.3,3.3,1.1,4.8c1.4,2.7,2,5.5,2,8.6c0,1.3-0.3,2.4-1.5,3.1
		c-1.2,0.7-1.5,1.6-0.4,2.7c2.2,2.2,3.8,4.8,4.7,7.7c1.9,5.6,5.9,9.8,9.4,14.3c1.1,1.4,2.5,2.7,3.6,4.1c2.4,3.3,2.3,7.1,1.9,10.8
		c-0.2,1.7-1.5,2.7-3.1,3c-6.7,1.1-13.2,1-19.3-2.6c-1.9-1.1-3.2-2.8-3.5-5.2c-0.2-1.6-1-2.5-2.7-2.8c-3.9-0.7-7.2-2.7-9.6-5.9
		c-2.4-3.1-1.1-6.5,0.4-9.5c1.9-3.8,1.9-7.8,2.3-11.8c0.1-1.7-0.8-3-2.4-3.8c-1.4-0.7-2.3-1.7-2.3-3.3c-0.2-9.6-2.7-18.7-5.3-27.8
		c-2.2-7.6-2.9-15.6-4.9-23.2c-0.9-3.6-1.9-7.3-3.5-10.8c-2.5-5.5-4.1-11.4-5.8-17.2c-3.4-11.8-6.5-23.7-11.1-35.2
		c-1.2-3-2.1-6-2.9-9.1c-0.5-1.9-1.1-3.7-1.8-5.5c-0.3-1-0.7-2.3-1.8-2.3c-1.3-0.1-1.3,1.4-1.7,2.3c-3.5,9.2-6.7,18.5-11.2,27.3
		c-1.7,3.3-1.4,7.3-2.1,11c-1.5,7.5-2.8,15-5.6,22.3c-1.3,3.3-2.5,6.8-3.4,10.4c-2.6,10.9-3.1,22.1-5.2,33
		c-1.4,7.1-1.6,14.2-3.3,21.2c-0.2,0.8-0.4,1.7-1.1,2.1c-5.9,3.5-4.2,8.9-3.6,14c0.5,4,1,8,1.7,12c0.8,5.1-2.5,8.4-6.8,10.5
		c-1.5,0.7-2.1,1.4-1.9,3.2c0.4,3.3-2.4,6.8-6.4,8c-4.9,1.5-10,1.2-14.9-0.2c-1.5-0.4-2.8-1.4-3.1-3.1c-0.6-3.5-0.8-7,0.3-10.4
		c0.6-1.9,2.1-3.1,3.2-4.6c3.6-4.8,7.6-9.5,8.7-15.7c0.2-0.9,0.7-1.6,1.5-2c2.5-1.5,2.9-3.8,3-6.5c0.1-2.9-0.4-5.2-2.3-7.5
		c-1.6-1.8-1.1-4.5-0.5-6.7c1.6-6.1,1.9-12.2,2.1-18.5c0.3-7.1,1.4-14.1,2.1-21.2c0-0.4,0.3-0.8,0.2-1.2c-0.8-3.3,0.6-6.3,1.7-9.2
		c1.6-4.2,1.8-8.5,2-12.9c0.1-2,0.8-3.9,1.1-5.9c2.2-12.7,1.9-25.5,2.1-38.3c0.1-8.8,0.3-17.7,1.4-26.5c1.3-9.8,3.7-19.4,6.6-28.9
		c0.9-2.9,0.4-5.9,0.9-8.8c0.2-1.3,0.4-2.6,1.1-3.8c1-1.9,2.2-3.8,1.5-6.3c-0.4-1.5,0.5-2.8,1.6-3.8c0.9-0.8,1.2-1.7,0.6-2.8
		c-3.3-5.4-3.5-11.6-4.7-17.5c-1.4-7.1-3.8-13.8-6.7-20.4c-1-2.3-2.6-3.6-5.2-3.5c-0.9,0-1.8,0-2.6-0.3c-7.2-2.9-15.3-2.7-22.4-6.1
		c-1.6-0.8-3.8-0.9-5.6-0.4c-3.9,1-7.9,0.8-11.8,1.5c-6.1,1.1-12.3,0.3-18.4,0.6c-6.8,0.3-13.6,0.8-20.4,0.4
		c-4.6-0.3-9.1-0.3-13.6,0.1c-1.5,0.1-2.7,0.3-3.8,1.6c-1.2,1.3-3,1.4-4.7,1.1c-1.4-0.3-2.5,0.2-3,1.3c-2,4-5.8,6.1-9.3,8.1
		c-3.2,1.8-6.3,3.7-9.2,6c-1.1,0.8-2.3,1.9-3.6,0.6c-1.2-1.3-0.3-2.5,0.5-3.7c0.9-1.3,2.2-2.1,3.5-2.9c0.7-0.4,1.5-0.7,2.1-1.2
		c1.1-0.8,2.5-1.5,2-3.2c-0.5-1.5-1.8-2.2-3.4-2.3c-4-0.4-8,0.4-11.9,1.3c-2.6,0.6-5.3,1.3-8,1.5c-1,0.1-2.3,0-2.6-1.2
		c-0.3-1.4,1.1-1.6,2-1.9C279.2,196.1,281.1,195.5,283.1,194.9z"/>
</g>
</svg>
