<?xml version="1.0" encoding="utf-8"?>
<!-- Generator: Adobe Illustrator 19.0.0, SVG Export Plug-In . SVG Version: 6.00 Build 0)  -->
<svg version="1.1" id="Calque_1" xmlns="http://www.w3.org/2000/svg" xmlns:xlink="http://www.w3.org/1999/xlink" x="0px" y="0px"
	 viewBox="0 0 960 560" style="enable-background:new 0 0 960 560;" xml:space="preserve">
<style type="text/css">
	.st0{fill:none;stroke:#000000;stroke-miterlimit:10;}
</style>
<g id="XMLID_1_">
	<path id="XMLID_3_" class="st0" d="M275.2,198.7c0.2,1.3,1.5,1.3,2.6,1.2c2.7-0.1,5.4-0.9,8-1.5c3.9-0.9,7.8-1.7,11.9-1.3
		c1.6,0.1,2.9,0.8,3.4,2.3c0.5,1.6-0.9,2.4-2,3.2c-0.6,0.5-1.4,0.8-2.1,1.2c-1.3,0.8-2.6,1.6-3.5,2.9c-0.8,1.1-1.8,2.4-0.5,3.7
		c1.3,1.4,2.5,0.2,3.6-0.6c2.9-2.2,6-4.1,9.2-6c3.5-2,7.3-4.1,9.3-8.1c0.6-1.2,1.6-1.6,3-1.3c1.7,0.4,3.5,0.3,4.7-1.1
		c1.1-1.2,2.4-1.5,3.8-1.6c4.5-0.4,9.1-0.4,13.6-0.1c6.8,0.4,13.6,0,20.4-0.4c6.1-0.3,12.3,0.5,18.4-0.6c3.9-0.7,7.9-0.5,11.8-1.5
		c1.9-0.5,4-0.4,5.6,0.4c7.1,3.4,15.1,3.2,22.4,6.1c0.8,0.3,1.7,0.4,2.6,0.3c2.6-0.1,4.2,1.2,5.2,3.5c2.9,6.6,5.3,13.3,6.7,20.4
		c1.2,5.9,1.4,12.1,4.7,17.5c0.6,1,0.3,2-0.6,2.8c-1.1,1-2,2.4-1.6,3.8c0.7,2.5-0.5,4.4-1.5,6.3c-0.7,1.3-0.8,2.5-1.1,3.8
		c-0.5,2.9,0,5.9-0.9,8.8c-2.9,9.5-5.4,19.1-6.6,28.9c-1.1,8.7-1.2,17.6-1.4,26.5c-0.2,12.8,0.2,25.6-2.1,38.3c-0.3,2-1,3.9-1.1,5.9
		c-0.2,4.4-0.4,8.7-2,12.9c-1.1,3-2.5,5.9-1.7,9.2c0.1,0.4-0.1,0.8-0.2,1.2c-0.7,7.1-1.9,14.1-2.1,21.2c-0.2,6.3-0.5,12.4-2.1,18.5
		c-0.6,2.2-1.1,4.9,0.5,6.7c2,2.3,2.4,4.6,2.3,7.5c-0.1,2.8-0.4,5.1-3,6.5c-0.8,0.5-1.3,1.1-1.5,2c-1.1,6.2-5.1,10.9-8.7,15.7
		c-1.1,1.5-2.6,2.8-3.2,4.6c-1.1,3.4-0.8,7-0.3,10.4c0.3,1.6,1.5,2.6,3.1,3.1c4.9,1.4,10,1.7,14.9,0.2c4-1.2,6.8-4.7,6.4-8
		c-0.2-1.8,0.3-2.5,1.9-3.2c4.3-2.1,7.6-5.4,6.8-10.5c-0.6-4-1.1-8-1.7-12c-0.7-5.1-2.3-10.5,3.6-14c0.7-0.4,0.9-1.3,1.1-2.1
		c1.7-7,1.9-14.2,3.3-21.2c2.1-10.9,2.7-22.1,5.2-33c0.8-3.6,2.1-7,3.4-10.4c2.8-7.2,4.1-14.8,5.6-22.3c0.8-3.7,0.4-7.7,2.1-11
		c4.5-8.8,7.7-18.1,11.2-27.3c0.3-0.9,0.4-2.4,1.7-2.3c1.1,0.1,1.5,1.4,1.8,2.3c0.7,1.8,1.3,3.6,1.8,5.5c0.8,3.1,1.8,6.2,2.9,9.1
		c4.6,11.5,7.7,23.4,11.1,35.2c1.7,5.8,3.3,11.7,5.8,17.2c1.6,3.5,2.6,7.1,3.5,10.8c1.9,7.7,2.7,15.6,4.9,23.2
		c2.6,9.1,5.2,18.2,5.3,27.8c0,1.6,0.9,2.7,2.3,3.3c1.6,0.8,2.5,2.1,2.4,3.8c-0.3,4-0.4,8-2.3,11.8c-1.5,3-2.7,6.4-0.4,9.5
		c2.4,3.1,5.7,5.2,9.6,5.9c1.7,0.3,2.6,1.1,2.7,2.8c0.2,2.4,1.6,4.1,3.5,5.2c6,3.5,12.6,3.7,19.3,2.6c1.6-0.3,2.9-1.3,3.1-3
		c0.4-3.8,0.5-7.6-1.9-10.8c-1.1-1.5-2.5-2.7-3.6-4.1c-3.5-4.5-7.5-8.7-9.4-14.3c-1-2.9-2.5-5.5-4.7-7.7c-1.1-1.1-0.8-2,0.4-2.7
		c1.2-0.7,1.5-1.8,1.5-3.1c0-3-0.6-5.9-2-8.6c-0.8-1.5-1.1-3.1-1.1-4.8c-0.2-4.2,0.2-8.3-0.4-12.5c-2-13.5-3.7-27-7.1-40.3
		c-0.4-1.5-0.8-2.9-1.8-4.2c-0.6-0.7-0.9-1.5-1-2.4c-0.4-3.4-0.8-6.8-1.7-10.2c-0.3-1.3-0.4-2.7-0.1-4.1c0.6-2.9,0.6-5.7,0.4-8.6
		c-0.7-10-2.2-20-1.6-30.1c0.2-3.3-0.4-6.7-0.2-10c0.6-8-1.4-15.6-3.7-23c-1.3-4.1-2.8-8.2-3.7-12.4c-1.2-5.3-1.2-10.6,1.3-15.6
		c0.7-1.4,1.2-3,1.6-4.5c3.4-13.1,5-26.5,6.8-39.9c0.5-3.8,0.5-7.8,4.3-10.5c2.4-1.6,5-1.9,7.7-2.5c4-0.9,8.9,0.2,11.5-4.4
		c0.1-0.2,0.5-0.3,0.8-0.4c2.7-0.8,5.7-1,8.3-0.4c4.7,1.1,9.4,1.3,14.1,1.4c15,0.4,30-0.8,45.1-0.5c5.5,0.1,10.2,0.8,14,5.9
		c4.2,5.7,11.6,7.6,17.2,11.9c0.2,0.1,0.4,0.2,0.7,0.3c0.8,0.2,1.6,0.2,2.2-0.5c0.5-0.7,0.5-1.5,0.2-2.3c-0.5-1.1-1.4-2-2.4-2.6
		c-1.5-1-3.1-1.7-4.5-2.7c-2.4-1.5-2.5-4-0.1-5.6c0.8-0.5,1.7-0.8,2.7-1c3.2-0.7,6.5-0.5,9.8-0.5c3.3,0,6.6,0.1,9.8-0.5
		c1-0.2,2-0.5,2-1.6c0-1.2-1.1-1.5-2-1.6l-8.2-12.8c-0.1-1.1-1.2-1.2-2.1-1.2c-2.7-0.2-5.3,0.5-7.7,1.4c-6.6,2.5-13.3,3.4-20.4,3
		c-8.7-0.5-17.3-1.3-25.9-3.1c-7.7-1.6-15.4-2.9-23.1-4.3c-4.4-0.8-9.1-0.5-13.1-3c-0.5-0.3-1.1-0.1-1.6,0.1
		c-0.8,0.4-1.5,0.4-2.3,0.1c-2.3-0.7-4.6-1.9-7.1-0.6c-0.4,0.2-1.1-0.2-1.6-0.4c-0.8-0.4-1.7-0.5-2.6-0.4c-4,0.4-7.8-1-11.8-1.4
		c-1.4-0.1-3.1-0.4-4.6-1c-5.2-1.9-10.4-4-16-4.7c-2.1-0.3-4.1-0.8-6-1.6c-2.1-0.9-4.1-1.8-6.4-1.1c-0.5,0.2-1.4,0-1.8-0.3
		c-2.6-2.1-6.7-0.4-9-3.4c-0.1-0.2-0.6-0.2-0.9-0.2c-2.4-0.1-3.6-1.6-3.8-3.8c-0.5-5,0.6-9.6,3.8-13.7c2.7-3.5,4.3-7.6,2.7-11.6
		c-1.3-3-1.4-5.7-0.6-8.5c1.5-5.3,0.1-10.1-2.3-14.8c-1-1.9-2.5-3.2-4.5-3.1c-3.2,0.1-5.4-1.4-7.7-3.3c-3.6-3-7.7-2.9-11.5-1.1
		c-10.1,4.7-14.4,13.3-14.7,24.1c-0.1,3.2,0.8,6.2-0.2,9.6c-1.3,4.5,1.9,8,5.6,10.4c1.1,0.7,1.8,1.4,2.4,2.6
		c1.7,3.6,1.8,7.4,1.8,11.3c0,1.9-2.9,5.9-4.8,6.1c-5.4,0.6-11.1-0.1-15.8,3.8c-0.1,0-0.2,0-0.2,0.1c-2.4,0.5-4.9,1-7.2,1.7
		c-4.6,1.3-9.5,1.5-13.4,4.8c-0.7,0.6-1.7,0.7-2.7,0.9c-4,0.8-8.1,1.9-12.2,1c-0.4-0.1-0.8,0-1.2,0.2c-2.3,1.1-4.7,0.7-7.1,0.5
		c-1-0.1-2-0.2-3.1,0c-4.3,0.8-8.7,1.6-13,2.3c-2.8,0.4-5.7,0.6-8.5,1.3c-10,2.7-20,5-30.2,6.8c-4.9,0.9-9.7,2.2-14.7,0.4
		c-0.9-0.3-2-0.2-2.8,0.4c-2.6,2.1-5.8,2-8.5,1.6c-6.2-0.9-12.4-0.2-18.7-0.3c-2.1,0-4.2,0-6.2,0.1L275.2,198.7z"/>
</g>
</svg>
