<?xml version="1.0" encoding="utf-8"?>
<!-- Generator: Adobe Illustrator 19.0.0, SVG Export Plug-In . SVG Version: 6.00 Build 0)  -->
<svg version="1.1" id="Calque_1" xmlns="http://www.w3.org/2000/svg" xmlns:xlink="http://www.w3.org/1999/xlink" x="0px" y="0px"
	 viewBox="0 0 250 1750" style="enable-background:new 0 0 250 1750;" xml:space="preserve">
<style type="text/css">
	.st0{fill:none;stroke:#000000;stroke-miterlimit:10;}
</style>
<g>
	<path class="st0" d="M-152.4,457.3c-1.8,0.7-2.4,1-3,1.2c-23.2,9.3-36.7,28.9-50.9,47.8c-16,21.3-32.5,42.2-49.6,62.7
		c-4.8,5.7-8.2,12.3-11.1,18.9c-11,24.7-24.2,48.2-36.7,72.2c-12.6,24.3-23.2,49.5-35.3,74c-3.2,6.6-6,13.4-9.9,19.6
		c-5.6,9-9.2,18.5-9.7,29c-0.3,6.6-2.9,11.5-8.7,14.7c-6.6,3.8-9,9.5-10,17.2c-3.1,23.1-3.2,46.6-9.6,69.2c-0.4,1.3-0.5,2.6-0.9,3.9
		c-1.2,4-1,8.9-6.5,10.2c-4.4,1.1-11.7-2-14.6-6.9c-5.1-8.5-8.2-17.4-5.9-27.6c0.8-3.6,3.4-9.1-1.6-10.5c-5.6-1.5-6.3,4.7-7.6,8.6
		c-6.9,19.5-13.4,39.1-17.4,59.4c-1.3,6.8-3.7,12.7-10.1,16.5c-3.4,2-4.6,5.3-5.7,9c-4.8,16-20,21.3-34.1,12c-3.2-2.1-3.9-5.3-4-8.7
		c-0.2-4.5-1.2-8.4-4.7-11.7c-2.9-2.7-3-6.6-3-10.3c-0.1-11.3,0-22.7,0-34c0-5.5,1.6-10.5,4.4-15.2c5.7-9.5,9.7-19.7,12-30.6
		c1-4.5,2.3-9.1,4.4-13.2c8.2-17,12.9-35,15.3-53.6c0.7-5.7,2.6-11,5.9-15.8c3.8-5.5,6.1-11.8,9.3-17.6c8.6-15.8,11.8-34,21.8-49.1
		c7.4-11.2,11.6-23.8,18-35.4c1.6-2.9,2.5-6.2,3.4-9.3c1.2-4.6,2.8-8.8,5.5-12.8c1.9-2.7,3.9-5.7,4.4-8.9
		c1.8-11.5,7.5-21.3,13.1-31.1c6.8-11.9,10.9-25,16.1-37.7c7-17.3,12.1-35.5,20.5-51.9c12.9-25.1,18.3-52.7,28.6-78.7
		c1.7-4.4,3.4-8.7,6-12.6c5.6-8.5,7.5-18.5,11.2-27.7c4.5-11.1,8.3-22.5,11.5-34c3.6-12.8,8.1-25.4,12.5-37.9
		c6.2-17.9,12.4-35.9,18.1-53.9c4.7-14.9,9.1-29.9,14-44.8c4.5-13.9,9.6-27.7,14.1-41.6c5.4-16.4,11.1-32.8,16-49.4
		c5.1-17.2,10.5-34.6,19.4-50.2c7.4-13,18.4-23.6,31-32.1c13.6-9.1,27.2-18,40-28.2c7.5-6,16.9-7.8,25.8-10.5
		c14.7-4.4,29.5-8.5,44.2-12.6c6.1-1.7,12-4,17.6-7.1c5.7-3.2,10.9-8.1,18.3-4.1c1.7,0.9,3.8-0.6,5.6-1.5
		c9.6-4.6,19.2-9.4,27.9-15.7c15.8-11.4,24.2-26.7,26-46.3c2-21,2.2-41.9,2.2-62.9c0-6.1-0.8-11.8-3.2-17.5
		c-3.7-8.6-4.9-18-6.5-27.2c-0.9-5-2.9-7.4-8.1-8.3c-10.7-1.9-17.7-8.1-20.7-19.1c-3.1-11.3-6.9-22.3-13.8-32
		c-2.7-3.8-3.3-8-2.2-12.4c1.2-5.2,2.7-10.3,4.3-15.4c1.8-5.8,5.7-9.4,11.7-11.2c6.4-1.8,6.8-3,5.1-9.2c-0.1-0.3-0.2-0.6-0.3-0.9
		c-10.6-25.5-9.1-52.1-7.3-78.8c0.3-4.7,0.8-9.3,0.8-14c-0.1-8.5,0.2-16.7,6.1-23.6c1-1.2,1.5-3.1,1.6-4.7
		c0.8-11.4,7.2-19.8,14.7-27.6c2.9-3.1,5.4-5.3,2.7-10.1c-2.7-4.8-0.9-9.8,2.9-13.7c3.2-3.4,6.1-7.3,9.9-9.8
		c7.7-5.2,12.8-12.4,18-19.8c2-2.8,3.4-5.6,4-9c1.9-10.3,8.4-15.5,18.5-16.5c3-0.3,6-0.4,9-0.2c7.2,0.3,13.9-0.7,19.9-5.2
		c1.5-1.2,3.6-2.3,5.4-2.3c24.5-1.2,49-1.7,72,9.4c6.3,3,12.9,5.3,19.6,7.5c10.6,3.5,19.1,10.8,27.8,17.4
		c5.8,4.4,11.1,9.6,16.3,14.7c8.2,8.1,14.1,17.5,14.3,29.6c0.1,4.1,1.6,7.6,4.5,10.8c8.7,9.2,11.2,20.1,7.4,32.3
		c-0.9,2.8-2,5.8-1.9,8.7c0.4,21.3-3.9,41.9-10.8,61.7c-5.1,14.8-5.4,30.1-7.6,45.1c-1,6.6-1.1,13.3-1.6,19.9
		c-0.3,4.3,1,7.4,4.7,10.2c8.9,6.8,10.9,13.3,7.4,23.6c-4.4,12.9-9.6,25.6-15.6,37.9c-5.4,11.2-8.1,12.4-21.1,10.6
		c-3.6-0.5-4.7,1.6-5.6,4.2c-3,8.1-5.4,16.6-9.3,24.2c-9.2,17.8-13,36.2-13.7,56.3c-0.7,20.5,1,40.6,2.7,60.8
		c1.3,15.2,9.1,26.9,21,36c5.3,4,10.8,7.8,16.3,11.6c3.1,2.1,6.5,3.5,10.3,3.1c5.4-0.7,9.5,1.5,13.7,4.6c12.9,9.6,27.4,16.4,42,22.8
		c11.3,4.9,22.6,9.8,34.1,14.4c17.9,7.2,32.8,19.1,48.3,30c4.8,3.3,8.1,8.8,11.7,13.5c4.5,5.8,8.7,11.8,13.8,17.1
		c5.7,5.9,8,13.8,11.2,21.1c13.6,30.5,23.3,62.4,30.7,94.9c5.4,23.4,10.6,46.8,15.5,70.2c3,14.3,5.6,28.8,7.8,43.2
		c2.9,19.3,9.6,37.4,16.5,55.4c7.9,20.5,16.2,40.9,22.9,61.8c8.9,28,22.5,54,33.7,81c6.8,16.6,13.3,33.3,20.1,49.9
		c2.9,7.1,5.8,14.2,9.1,21.1c8.9,18.7,14.2,38.8,23,57.4c6.9,14.7,12,30.2,19.5,44.5c6.2,11.7,12.8,23.5,18.1,35.5
		c6.5,14.5,12.8,29.3,19,43.9c2.4,5.5,1.4,10.7-2,15.1c-4.5,5.9-3.7,11.4-1.2,17.8c4,9.9,7.1,20.1,10.9,30.1
		c14.3,37.7,16.7,76.5,11.4,116.1c-1.5,10.9-1.2,22-3.8,32.7c-2.1,8.4-5.8,11.6-13.7,11.4c-6.5-0.1-11.1-4.6-12.1-12.2
		c-1-8-2-15.8-6.7-22.8c-2.5-3.8-2-8.4-1.9-12.7c0.6-16.4-1.3-32.6-3.9-48.7c-1.2-7.4-3.7-14.2-7.4-20.6c-1.2-2-2.5-4-4.6-5.1
		c-2.8-1.4-5.9-1.9-8.6-0.3c-3,1.8-1.7,4.7-1,7.2c2.2,8.3,5.8,16.5,1.9,25.3c-1.1,2.4-1.8,5-3.7,7c-10.1,10.1-20.9,7.4-24.6-6.4
		c-4.8-18.4-7.3-37.3-9.6-56.1c-0.7-6-1.7-11.9-2.4-17.8c-0.6-5-3-8-8.1-8.5c-6.3-0.6-12.6-1.3-18.9-1.7c-6.5-0.4-11.3-3.1-15-8.5
		c-3.1-4.5-4.5-9.1-2-14c3.1-6.1,1.5-11.2-1.3-17c-10.1-21.3-19.9-42.8-28.9-64.7c-7.2-17.6-15-34.9-22.9-52.2
		c-4.4-9.7-8.3-19.6-11.5-29.8c-3.4-10.8-7-21.6-13.5-31c-2.1-3-3.3-6.6-3.9-10.2c-2.8-18-12-33-21.9-47.7
		c-7.8-11.6-15.8-23.1-25.2-33.5c-14.1-15.6-23.5-33.8-31-53.2c-5.4-14-10.6-28.1-16-42.1c-1.3-3.3-2.2-6.9-5.6-9.7
		c-2.4,3.1-1.4,6.1-1.1,8.9c4.4,41.7,9,83.4,13.1,125.2c1.9,19.9,2.4,39.9,4.1,59.8c2.3,25.9,5.2,51.7,7.7,77.5
		c0.3,3.3,0.4,6.7,0.4,10c-0.3,28.7,0.8,57.3,2.7,85.9c1.7,26.9,3.3,53.8,7,80.6c2.2,15.5,0.9,31.3,1,46.9c0,5.3,0.2,10.6,1,15.9
		c2.4,15.9,2.1,31.9,0,47.7c-0.9,7-1.4,13.9-1.5,20.9c-0.6,34.3-1,68.6-1.8,102.9c-0.6,28.6-2.1,57.2-2.2,85.9
		c-0.1,28-5,55.7-8.8,83.4c-2.7,19.5-6.1,38.8-9.4,58.2c-3,17.1-2.3,33.5,5.6,49.6c6.4,13.1,12.2,26.6,16.1,40.9
		c1.2,4.6,2.1,9,1.2,13.8c-1.1,5.9-1.5,11.9-2.6,17.8c-2.4,12.8-3.5,25.5-0.7,38.6c1.7,8.1,0.7,16.6,0,24.9c-1,10.3-0.9,20.6,0,30.9
		c0.7,7.9,0.7,16,0.9,24c0.3,10.3,0.5,20.6,1.4,30.9c1.3,14.3-1.4,28.6-2.1,42.9c-1.3,28.2-6.7,56.2-5.3,84.7
		c0.5,11.2-1.6,22.6-2.7,33.8c-1.6,16-1.5,31.9,0.4,47.8c0.7,5.3,3,8.4,7.6,10.6c11.8,5.6,19.5,14.8,23.1,27.3
		c3.6,12.5,7.5,24.9,10.8,37.5c2.1,8.2,0.6,16.6,0,24.9c-0.3,3.3-1.1,6.6-0.1,9.9c4.4,14.3,0,27.9-7.2,39.2
		c-18.5,29-33.8,59.7-50,89.9c-5.6,10.3-13.7,17.4-23.8,21.8c-25.9,11.2-51.7,11.8-76.8-2.9c-3.8-2.2-7-5.1-10.3-7.9
		c-3.7-3.3-5.6-7.3-5.6-12.3c0-7.7-0.4-15.3-0.2-23c0.5-18.3,1.9-36.5,0.1-54.8c-1.1-11.5,3.7-22.2,6.4-33.2c1-4.2,2.6-8.3,3.2-12.6
		c1-7-1.1-10.4-7.6-13.5c-6.6-3.1-13.4-6-20.1-9c-3.9-1.8-7.8-3.7-11.1-6.6c-8.1-6.9-13.8-14.7-14.2-26.2c-0.4-10.6-2.5-21-0.9-31.8
		c1.4-9.5,2.6-19.2,2.5-28.9c0-2,0.2-4.1,0.9-5.9c9.2-23.2,7.9-48.6,14.4-72.3c0.8-2.9,0.9-6.2-0.6-8.8c-7.3-12-7.4-25.5-8.1-38.7
		c-1.3-24.3-4.9-48.6-2.5-72.9c2.6-26.2-1.3-51.8-4.9-77.5c-2.8-19.7-1.5-39.2,2.3-58.6c1.3-6.4,1.3-12.4-0.6-18.6
		c-13.8-45.4-21.4-92.1-27.2-139.1c-4.2-34-8.9-68-13.3-102.1c-0.9-6.6-1.9-13.3-1.9-19.9c0.3-29.6-7-58.1-11.6-87
		c-2.2-13.8-5.8-27.1-10.4-40.5c-5.4-15.6-7.3-32.4-10.7-48.7c-0.6-2.9-1.1-5.9-1.8-8.8c-1.8-7.5-4-8.4-11.2-5.1
		c-4.2,1.9-6.5,5.5-9.2,8.9c-21.9,28-35.1,60.1-46.7,93.3c-15.6,44.6-24.6,90.6-34,136.6c-2.5,12.4-5.3,24.8-8.7,37
		c-7.5,26.7-11.2,54.1-15.6,81.4c-0.7,4.6-1.4,9.3-3.1,13.6c-10.5,25.8-16.4,52.8-18.3,80.5c-1.6,22.6-7.2,44-15.7,64.7
		c-3,7.4-3.4,14.8-2.2,22.5c2.7,18,2.2,35.8-3.8,53.3c-7.8,22.6-9.4,46.3-10.7,69.9c-0.7,12.7-1.7,25.3-5.5,37.5
		c-2.9,9.3-3.1,19.1-4.1,28.6c-1.9,19.5-2.9,39.2-4.6,58.8c-1.4,15.9-3.6,31.8-8.7,47.1c-4.4,12.9-8.8,25.9-11.1,39.4
		c-1,5.8-3.8,9.7-9.3,12c-2.2,0.9-4.1,2.2-6.3,3.1c-4.5,1.9-6.7,5-6.6,10c0.4,12.8-3,25.1-4.7,37.6c-0.2,1.6-0.8,3.3-0.9,4.9
		c-0.5,6.5-4,12-5.8,18c-2,6.8,4.4,11.3,5.1,17.8c1.5,14.2-4.7,25.9-9.6,38.2c-1,2.6-3.9,3.6-6.4,4.6c-20.4,8.5-41.7,12.3-63.5,9.6
		c-10.2-1.2-21.1-4.4-27.3-14.7c-1-1.7-2.4-3.3-2.9-5.2c-4-14.4-9.7-28.5-8.6-43.9c0.8-11.4-1.6-22.6-2.8-33.8
		c-0.6-5.4-3.3-10.1-5.5-15c-6.3-14.3-13.2-28.4-15.4-44.2c-1.8-13.5,4.1-24.7,10.2-35.8c1.5-2.8,4.4-2.3,7.2-2.2
		c9.9,0.2,11-0.8,9.5-10.8c-2.2-14.6-1.4-29.3-1.7-43.9c-0.1-4.4,0.7-8.7,2.2-12.8c3.6-10.3,3.8-20.7,3-31.5
		c-1.1-16.3-0.5-32.6-1.1-48.9c-0.5-13.6-1.6-27.3-3-40.8c-0.9-8.1,0.5-16,1.4-23.9c3.5-32.8,5.6-65.7,7.3-98.6
		c0.5-10.1-1.4-19.9-1.6-29.9c-0.2-8.2,1-15.8,4.3-23.3c5.7-13.1,10.8-26.5,16.5-39.7c12-27.7,20.3-56.4,24.7-86.2
		c0.7-4.6,0.8-9.3,0.5-13.9c-1.6-26.9-3.5-53.8-5.2-80.8c-0.2-2.3-0.4-4.7-0.4-7c-0.6-24.3-0.8-48.6-1.9-72.9
		c-1.3-28.2,2.4-55.8,6.3-83.6c5.8-40.6,10.7-81.2,13.6-122.1c0.9-12.3,2.2-24.5,3.2-36.8c0.6-6.9,1.9-13.9-5.2-19
		c-2.8-2-2.6-6.1-2.1-9.4c2.7-19.3,0.9-38.6-0.2-57.8c-0.6-10.6,2.8-20.4,6.1-30.2c2-6,4.2-12,1.2-18.4c-1.3-2.9-0.4-5.9,0.6-8.8
		c8-21.5,7.8-44,5.5-66.2c-1.8-17.1-0.6-33.9,1.3-50.8c2.6-22.2,3.8-44.5,5.5-66.7c1.1-14.6,1.8-29.3,3.3-43.8
		c1-9.5-0.6-18.6-2-27.8C-151.6,511.4-154.6,484.9-152.4,457.3z"/>
</g>
</svg>
